<?xml version="1.0" encoding="utf-8"?>
<!-- Generator: Adobe Illustrator 15.1.0, SVG Export Plug-In . SVG Version: 6.00 Build 0)  -->
<!DOCTYPE svg PUBLIC "-//W3C//DTD SVG 1.1//EN" "http://www.w3.org/Graphics/SVG/1.1/DTD/svg11.dtd">
<svg version="1.1" id="Capa_1" xmlns="http://www.w3.org/2000/svg" xmlns:xlink="http://www.w3.org/1999/xlink" x="0px" y="0px"
	 width="360px" height="96px" viewBox="0 0 360 96" enable-background="new 0 0 360 96" xml:space="preserve">
<g>
	<path fill="#2B2523" d="M239.055,35.05c0.234,0.399,0.629,0.718,1.154,0.95c0.537,0.232,1.408,0.345,2.646,0.345
		c1.011,0,1.799-0.128,2.346-0.397c0.553-0.26,0.965-0.607,1.247-1.032c0.271-0.43,0.438-0.9,0.507-1.425
		c0.068-0.528,0.104-1.054,0.104-1.591v-7.644h-1.35v7.621c0,0.405-0.016,0.83-0.043,1.253c-0.027,0.422-0.146,0.81-0.342,1.164
		c-0.201,0.348-0.488,0.64-0.873,0.848c-0.381,0.219-0.916,0.322-1.596,0.322c-0.797,0.014-1.369-0.117-1.705-0.391
		c-0.327-0.272-0.58-0.6-0.728-0.981c-0.159-0.381-0.249-0.794-0.284-1.227c-0.021-0.429-0.039-0.8-0.039-1.104v-7.505h-1.603
		l0.03,7.621c0,0.631,0.023,1.215,0.076,1.753C238.66,34.174,238.807,34.646,239.055,35.05"/>
	<polygon fill="#2B2523" points="250.771,25.581 250.809,25.581 256.447,36.144 258.133,36.144 258.133,24.255 256.699,24.255 
		256.699,33.887 256.672,33.887 251.641,24.255 249.336,24.255 249.336,36.144 250.771,36.144 	"/>
	<rect x="260.576" y="24.258" fill="#2B2523" width="1.479" height="11.886"/>
	<polygon fill="#2B2523" points="269.291,36.144 273.419,24.272 272.107,24.258 268.973,33.501 268.938,33.501 265.592,24.272 
		263.746,24.272 268.223,36.144 	"/>
	<polygon fill="#2B2523" points="281.184,35.117 276.469,35.117 276.469,30.412 280.793,30.412 280.793,29.41 276.469,29.41 
		276.469,25.205 281.037,25.205 281.037,24.256 274.963,24.256 274.963,36.144 281.184,36.144 	"/>
	<path fill="#2B2523" d="M284.834,30.508h1.115l2.974,5.637h1.583l-2.999-5.769c0.347-0.065,1-0.337,1.24-0.471
		c0.438-0.246,0.726-0.527,1.04-0.952c0.309-0.423,0.469-1.004,0.479-1.742c0-0.611-0.104-1.11-0.303-1.497
		c-0.191-0.385-0.471-0.678-0.813-0.884c-0.354-0.215-0.75-0.357-1.217-0.434c-0.463-0.084-0.953-0.13-1.481-0.142h-3.211v11.89
		h1.593V30.508z M284.834,25.103h1.574c0.689,0,1.229,0.159,1.633,0.479c0.396,0.317,0.596,0.858,0.596,1.63
		c0,0.485-0.086,1.029-0.242,1.315c-0.168,0.283-0.393,0.5-0.666,0.638c-0.271,0.135-0.578,0.22-0.92,0.254
		c-0.351,0.028-0.694,0.046-1.06,0.046h-0.915V25.103z"/>
	<path fill="#2B2523" d="M293.494,29.651c0.41,0.297,0.852,0.558,1.322,0.797c0.473,0.232,0.916,0.479,1.318,0.74
		c0.407,0.255,0.745,0.546,1.024,0.84c0.278,0.305,0.42,0.693,0.42,1.176c0,1.315-0.878,2.132-2.407,2.132
		c-1.1,0-2.031-0.176-2.994-0.646v1.29c0.065,0.019,0.188,0.048,0.377,0.087c0.18,0.042,0.395,0.081,0.648,0.122
		c0.246,0.037,0.525,0.066,0.828,0.105c0.302,0.026,0.597,0.032,0.896,0.032c0.552,0,1.071-0.057,1.583-0.182
		c0.492-0.127,0.944-0.329,1.322-0.604c0.393-0.276,0.702-0.628,0.923-1.055c0.226-0.42,0.349-0.941,0.349-1.552
		c0-0.656-0.143-1.193-0.424-1.62c-0.281-0.421-0.631-0.772-1.054-1.044c-0.416-0.275-0.874-0.525-1.366-0.756
		c-0.484-0.237-0.938-0.479-1.355-0.73c-0.415-0.255-0.762-0.539-1.049-0.848c-0.291-0.314-0.433-0.698-0.433-1.168
		c0-0.538,0.19-0.972,0.583-1.288c0.387-0.315,1.035-0.479,1.655-0.479c0.884,0,1.687,0.106,2.683,0.568v-1.207
		c-0.25-0.075-0.594-0.14-1.033-0.201c-0.449-0.063-0.949-0.093-1.511-0.093c-1.14,0-2.044,0.258-2.722,0.768
		c-0.684,0.509-1.028,1.248-1.028,2.223c0,0.627,0.147,1.14,0.415,1.538C292.744,28.998,293.085,29.348,293.494,29.651"/>
	<rect x="300.926" y="24.258" fill="#2B2523" width="1.479" height="11.886"/>
	<path fill="#2B2523" d="M308.896,35.958c0.776-0.125,1.453-0.385,2.021-0.779c0.567-0.397,1.021-0.975,1.342-1.724
		c0.326-0.758,0.488-1.907,0.488-3.458c0-1.257-0.156-2.259-0.474-3.014c-0.313-0.749-0.752-1.326-1.303-1.729
		c-0.562-0.402-1.221-0.67-1.992-0.795c-0.772-0.119-1.607-0.192-2.508-0.205h-1.91v11.889h1.842
		C307.293,36.144,308.127,36.087,308.896,35.958 M306.063,25.163h1.146c0.739,0,1.357,0.108,1.848,0.352
		c0.49,0.234,0.881,0.587,1.164,1.058c0.279,0.459,0.48,0.983,0.602,1.566c0.128,0.584,0.183,1.218,0.183,1.908
		c0,1.962-0.336,3.313-1.008,4.062c-0.671,0.747-1.692,1.114-3.042,1.114h-0.891v-10.06H306.063z"/>
	<path fill="#2B2523" d="M315.682,32.359h3.776c0.187,0.498,0.36,0.972,0.54,1.423c0.143,0.4,0.292,0.809,0.452,1.237
		c0.151,0.436,0.284,0.803,0.396,1.109h1.771l-4.362-11.874h-1l-4.239,11.874l1.321,0.016L315.682,32.359z M317.578,26.904h0.036
		l1.612,4.586h-3.27L317.578,26.904z"/>
	<path fill="#2B2523" d="M331.703,26.985c-0.316-0.75-0.754-1.331-1.309-1.73c-0.56-0.402-1.22-0.673-1.994-0.795
		c-0.773-0.117-1.604-0.191-2.506-0.203h-1.91v11.887h1.847c0.888,0,1.721-0.058,2.491-0.187c0.779-0.121,1.453-0.384,2.02-0.778
		c0.563-0.396,1.016-0.975,1.344-1.725c0.328-0.757,0.489-1.907,0.489-3.458C332.175,28.74,332.02,27.738,331.703,26.985
		 M329.421,34.107c-0.679,0.748-1.688,1.115-3.041,1.115h-0.896v-10.06h1.141c0.747,0,1.367,0.109,1.85,0.352
		c0.5,0.234,0.879,0.588,1.168,1.056c0.283,0.46,0.488,0.985,0.604,1.567c0.12,0.587,0.175,1.219,0.175,1.908
		C330.422,32.011,330.091,33.36,329.421,34.107"/>
	<polygon fill="#2B2523" points="245.965,52.131 245.932,52.131 240.902,42.503 238.6,42.503 238.6,54.393 240.033,54.393 
		240.033,43.822 240.07,43.822 245.706,54.393 247.398,54.393 247.398,42.503 245.965,42.503 	"/>
	<polygon fill="#2B2523" points="283.37,42.502 283.37,54.393 284.8,54.393 284.8,43.821 284.84,43.821 290.473,54.393 
		292.175,54.393 292.175,42.502 290.736,42.502 290.736,52.128 290.695,52.128 285.675,42.502 	"/>
	<path fill="#2B2523" d="M253.229,42.47l-4.233,11.869l1.319,0.015l1.349-3.787h3.778c0.179,0.506,0.354,0.978,0.522,1.436
		c0.151,0.395,0.304,0.809,0.457,1.236c0.155,0.432,0.284,0.805,0.403,1.102h1.767l-4.354-11.869L253.229,42.47L253.229,42.47z
		 M251.93,49.706l1.629-4.584h0.034l1.606,4.584H251.93z"/>
	<path fill="#2B2523" d="M298.01,42.47l-4.238,11.869l1.315,0.015l1.351-3.787h3.781c0.178,0.506,0.355,0.978,0.526,1.436
		c0.147,0.395,0.294,0.809,0.452,1.236c0.16,0.432,0.289,0.805,0.404,1.102h1.773l-4.361-11.869L298.01,42.47L298.01,42.47z
		 M296.711,49.706l1.627-4.584h0.036l1.604,4.584H296.711z"/>
	<path fill="#2B2523" d="M264.585,54.51c0.301-0.027,0.576-0.064,0.821-0.104c0.254-0.043,0.464-0.078,0.654-0.108
		c0.185-0.03,0.303-0.063,0.371-0.086v-1.272c-0.275,0.133-0.613,0.287-1.007,0.449c-0.401,0.161-0.975,0.262-1.726,0.282
		c-0.648,0-1.168-0.167-1.538-0.512c-0.382-0.339-0.649-0.765-0.828-1.272c-0.183-0.51-0.283-1.087-0.331-1.73
		c-0.035-0.648-0.061-1.229-0.061-1.752c0-0.573,0.024-1.169,0.066-1.778c0.053-0.617,0.163-1.17,0.348-1.67
		c0.18-0.496,0.459-0.903,0.838-1.226c0.381-0.33,0.914-0.473,1.621-0.45c0.629,0.025,1.147,0.109,1.541,0.279
		c0.396,0.165,0.736,0.315,1.006,0.445v-1.306c-0.066-0.022-0.191-0.05-0.381-0.084c-0.178-0.034-0.395-0.072-0.644-0.111
		c-0.253-0.04-0.519-0.073-0.817-0.102c-0.306-0.024-0.569-0.046-0.82-0.064c-0.879,0-1.605,0.152-2.188,0.431
		c-0.587,0.287-1.056,0.684-1.408,1.206c-0.346,0.522-0.601,1.157-0.763,1.9c-0.147,0.751-0.229,1.584-0.229,2.515
		c0,0.873,0.074,1.698,0.221,2.478c0.143,0.781,0.384,1.443,0.732,1.979c0.343,0.534,0.815,0.963,1.401,1.258
		c0.584,0.299,1.332,0.451,2.232,0.451C263.999,54.553,264.294,54.538,264.585,54.51"/>
	<rect x="268.705" y="42.479" fill="#2B2523" width="1.488" height="11.884"/>
	<path fill="#2B2523" d="M280.378,44.063c-0.349-0.536-0.81-0.959-1.394-1.259c-0.574-0.312-1.308-0.47-2.185-0.47
		c-0.885,0-1.606,0.152-2.192,0.434c-0.58,0.286-1.053,0.684-1.402,1.205c-0.35,0.523-0.604,1.156-0.756,1.9
		c-0.155,0.748-0.233,1.585-0.233,2.516c0,0.873,0.071,1.696,0.216,2.477c0.139,0.78,0.387,1.442,0.731,1.979
		c0.347,0.532,0.815,0.961,1.407,1.256c0.584,0.299,1.33,0.453,2.229,0.453c0.866,0,1.586-0.145,2.169-0.432
		c0.58-0.277,1.047-0.684,1.393-1.202c0.349-0.514,0.599-1.173,0.75-1.963c0.162-0.786,0.238-1.644,0.238-2.568
		c0-0.871-0.074-1.68-0.229-2.411C280.979,45.241,280.729,44.604,280.378,44.063 M279.465,50.229
		c-0.043,0.65-0.158,1.227-0.339,1.727c-0.181,0.499-0.454,0.904-0.824,1.229c-0.36,0.324-0.868,0.485-1.501,0.485
		c-0.652,0-1.167-0.166-1.537-0.51c-0.373-0.337-0.656-0.765-0.832-1.272c-0.17-0.511-0.283-1.086-0.32-1.73
		c-0.043-0.649-0.063-1.231-0.063-1.753c0-0.574,0.021-1.169,0.071-1.78c0.035-0.616,0.155-1.166,0.339-1.666
		c0.18-0.499,0.454-0.905,0.846-1.227c0.365-0.329,0.865-0.491,1.498-0.491c0.646,0,1.149,0.171,1.516,0.512
		c0.371,0.342,0.643,0.765,0.818,1.273c0.188,0.513,0.301,1.066,0.344,1.682c0.035,0.608,0.055,1.184,0.055,1.697
		C279.533,48.968,279.51,49.577,279.465,50.229"/>
	<polygon fill="#2B2523" points="305.023,42.479 305.023,54.363 310.725,54.363 310.725,53.373 306.557,53.373 306.557,42.479 	"/>
	<polygon fill="#2B2523" points="249.828,66.85 254.15,66.85 254.15,65.85 249.828,65.85 249.828,61.641 254.389,61.641 
		254.389,60.695 248.324,60.695 248.324,72.583 254.54,72.583 254.54,71.559 249.828,71.559 	"/>
	<path fill="#2B2523" d="M271.959,60.695l-4.242,11.871l1.318,0.017l1.35-3.787h3.777c0.184,0.501,0.357,0.978,0.525,1.423
		c0.149,0.396,0.303,0.814,0.457,1.241c0.158,0.433,0.285,0.799,0.401,1.106h1.771l-4.359-11.871H271.959z M270.654,67.928
		l1.634-4.582h0.026l1.61,4.582H270.654z"/>
	<path fill="#2B2523" d="M302.43,60.695l-4.238,11.871l1.322,0.017l1.346-3.787h3.779c0.178,0.501,0.355,0.978,0.527,1.423
		c0.148,0.396,0.302,0.814,0.459,1.241c0.148,0.433,0.279,0.799,0.396,1.106h1.771l-4.358-11.871H302.43z M301.129,67.928
		l1.629-4.582h0.034l1.606,4.582H301.129z"/>
	<path fill="#2B2523" d="M318.284,60.695l-4.237,11.871l1.318,0.017l1.34-3.787h3.783c0.184,0.501,0.356,0.978,0.529,1.423
		c0.147,0.396,0.301,0.814,0.455,1.241c0.152,0.433,0.284,0.799,0.402,1.106h1.77l-4.361-11.871H318.284z M316.984,67.928
		l1.623-4.582h0.035l1.608,4.582H316.984z"/>
	<polygon fill="#2B2523" points="263.09,60.697 261.548,60.697 261.548,72.584 267.256,72.584 267.256,71.596 263.09,71.596 	"/>
	<polygon fill="#2B2523" points="293.424,60.697 291.886,60.697 291.886,72.584 297.59,72.584 297.59,71.596 293.424,71.596 	"/>
	<path fill="#2B2523" d="M245.012,61.691c-0.564-0.407-1.222-0.668-1.996-0.795c-0.764-0.121-1.6-0.189-2.502-0.203h-1.916v11.891
		h1.846c0.889,0,1.724-0.063,2.49-0.188c0.78-0.127,1.451-0.387,2.025-0.781c0.564-0.396,1.012-0.971,1.346-1.723
		c0.319-0.754,0.479-1.9,0.479-3.455c0-1.254-0.158-2.262-0.467-3.018C246.005,62.665,245.563,62.093,245.012,61.691
		 M244.035,70.542c-0.674,0.747-1.688,1.126-3.047,1.126H240.1v-10.07h1.151c0.741,0,1.358,0.111,1.839,0.354
		c0.487,0.238,0.877,0.59,1.17,1.053c0.277,0.467,0.483,0.989,0.604,1.571c0.122,0.584,0.172,1.224,0.172,1.907
		C245.036,68.445,244.709,69.8,244.035,70.542"/>
	<polygon fill="#2B2523" points="315.251,60.695 306.602,60.695 306.602,61.738 310.088,61.738 310.088,72.584 311.678,72.584 
		311.678,61.738 315.251,61.738 	"/>
	<path fill="#2B2523" d="M287.307,60.727c-0.598-0.031-1.041-0.031-1.654-0.031h-2.354v11.871h1.588v-5.014h0.766
		c0.613,0,1.058,0,1.654-0.041c2.148-0.104,3.199-1.525,3.199-3.39C290.506,62.253,289.455,60.832,287.307,60.727 M286.641,66.615
		c-0.339,0.029-0.771,0.029-1.089,0.029h-0.665v-5.051h0.665c0.317,0,0.75,0,1.089,0.033c1.59,0.119,2.223,1.115,2.223,2.494
		C288.861,65.495,288.23,66.491,286.641,66.615"/>
	<path fill="#2B2523" d="M213.805,17.309c0.155,0.087,0.307,0.137,0.465,0.144c0.023,0.003,0.045,0.003,0.069,0.003
		c0.14,0,0.288-0.03,0.433-0.107c0.158-0.085,0.318-0.229,0.486-0.438c0.17-0.212,0.28-0.394,0.324-0.572
		c0.051-0.172,0.051-0.341,0.006-0.498c-0.04-0.15-0.123-0.291-0.246-0.419c-0.109-0.122-0.238-0.247-0.395-0.366l-0.387-0.313
		l-1.58,1.956l0.383,0.307C213.512,17.125,213.656,17.228,213.805,17.309 M214.754,15.353l0.098,0.076
		c0.107,0.085,0.178,0.178,0.215,0.26c0.043,0.097,0.063,0.177,0.053,0.26c-0.01,0.091-0.039,0.188-0.092,0.29
		c-0.053,0.099-0.127,0.206-0.213,0.316c-0.207,0.254-0.4,0.398-0.582,0.433c-0.032,0.003-0.058,0.003-0.088,0.003
		c-0.146,0-0.306-0.063-0.469-0.188l-0.057-0.052L214.754,15.353z"/>
	<polygon fill="#2B2523" points="215.518,18.996 215.782,18.725 215.156,18.08 215.686,17.558 216.131,18.002 216.396,17.751 
		215.957,17.296 216.4,16.858 216.998,17.455 217.279,17.19 216.309,16.21 214.507,17.965 	"/>
	<polygon fill="#2B2523" points="217.467,21.414 217.777,21.18 217.24,20.475 218.939,19.195 218.609,18.76 216.594,20.272 	"/>
	<path fill="#2B2523" d="M217.73,21.812l0.787-0.186l0.405,0.604l-0.475,0.665l0.319,0.485l1.56-2.212l-0.22-0.326l-2.635,0.586
		L217.73,21.812z M219.534,21.399l-0.377,0.531l-0.263-0.385L219.534,21.399z"/>
	<path fill="#2B2523" d="M219.9,25.423l0.99-0.493l0.016,0.037c0.06,0.095,0.113,0.2,0.164,0.296
		c0.068,0.115,0.14,0.209,0.226,0.281c0.103,0.087,0.207,0.14,0.326,0.157c0.034,0.007,0.062,0.01,0.094,0.01
		c0.101,0,0.214-0.027,0.33-0.087c0.151-0.072,0.261-0.177,0.315-0.289c0.058-0.104,0.074-0.22,0.068-0.338
		c-0.012-0.11-0.041-0.226-0.094-0.34c-0.047-0.103-0.1-0.206-0.146-0.304l-0.277-0.541l-0.105,0.055c0,0-0.267,0.136-0.32,0.162
		l-1.822,0.927L219.9,25.423z M221.836,24.45l0.085,0.162c0.062,0.119,0.082,0.217,0.062,0.305c-0.01,0.077-0.078,0.138-0.196,0.201
		c-0.074,0.037-0.129,0.062-0.194,0.056c-0.051-0.003-0.091-0.019-0.134-0.04c-0.04-0.036-0.082-0.082-0.112-0.137
		c-0.049-0.063-0.084-0.129-0.113-0.196l-0.021-0.036L221.836,24.45z"/>
	<polygon fill="#2B2523" points="221.086,28.003 221.447,27.86 221.098,27.042 223.064,26.214 222.85,25.704 220.521,26.691 	"/>
	<path fill="#2B2523" d="M221.279,28.554l0.82,0.018l0.237,0.685l-0.633,0.52l0.194,0.56l2.072-1.75l-0.129-0.377l-2.703-0.094
		L221.279,28.554z M223.139,28.61l-0.5,0.414l-0.158-0.439L223.139,28.61z"/>
	<polygon fill="#2B2523" points="224.063,30.171 221.982,30.69 222.109,31.202 224.188,30.679 224.377,31.388 224.734,31.285 
		224.243,29.363 223.877,29.454 	"/>
	<path fill="#2B2523" d="M222.309,32.05l0.799,0.155l0.107,0.717l-0.708,0.412l0.095,0.572l2.34-1.376l-0.062-0.378l-2.647-0.558
		L222.309,32.05z M224.121,32.423l-0.564,0.326l-0.076-0.47L224.121,32.423z"/>
	<path fill="#2B2523" d="M191.547,14.362l0.773,1.755l0.406-0.185l-0.658-1.477l1.545,1.094l0.435-0.189l-0.981-2.208l-0.4,0.179
		l0.6,1.364l-1.412-1.008l-0.506,0.221l0.039,0.103C191.387,14.011,191.518,14.304,191.547,14.362"/>
	<path fill="#2B2523" d="M194.895,14.369l0.668-0.165l0.451,0.628l0.555-0.14l-1.535-2.1l-0.372,0.097l-0.284,2.56l0.446-0.108
		L194.895,14.369z M195.001,13.4l0.351,0.486l-0.42,0.112L195.001,13.4z"/>
	<path fill="#2B2523" d="M196.846,14.311c0.105,0.109,0.23,0.188,0.365,0.241c0.113,0.045,0.232,0.063,0.363,0.063
		c0.029,0,0.064-0.004,0.101-0.005c0.065-0.003,0.125-0.013,0.187-0.026c0.061-0.017,0.115-0.029,0.162-0.043
		c0.052-0.014,0.088-0.024,0.131-0.036c0.041-0.011,0.068-0.024,0.082-0.029l0.078-0.033l-0.063-0.507l-0.156,0.095
		c-0.046,0.032-0.104,0.07-0.174,0.104c-0.066,0.033-0.15,0.061-0.252,0.076h-0.046c-0.077,0-0.138-0.013-0.198-0.043
		c-0.074-0.038-0.136-0.09-0.188-0.17c-0.062-0.077-0.103-0.173-0.137-0.289c-0.037-0.112-0.062-0.246-0.08-0.384
		c0-0.128-0.012-0.251-0.012-0.358c0-0.087,0.012-0.168,0.036-0.238c0.021-0.05,0.062-0.099,0.106-0.135
		c0.048-0.037,0.123-0.06,0.225-0.07c0.053-0.006,0.109-0.006,0.159-0.004c0.054,0.004,0.104,0.006,0.146,0.012
		c0.053,0.01,0.094,0.015,0.129,0.023c0.041,0.015,0.074,0.021,0.102,0.027l0.164,0.048l-0.061-0.479l-0.084-0.014
		c-0.058,0-0.127-0.004-0.22-0.004h-0.036c-0.08,0-0.171,0.004-0.271,0.012c-0.358,0.034-0.62,0.159-0.772,0.379
		c-0.135,0.211-0.196,0.51-0.165,0.885c0.026,0.188,0.059,0.36,0.12,0.513C196.65,14.077,196.74,14.21,196.846,14.311"/>
	<polygon fill="#2B2523" points="199.271,14.461 199.115,12.057 198.605,12.087 198.766,14.497 	"/>
	<path fill="#2B2523" d="M199.967,14.109c0.083,0.121,0.184,0.207,0.311,0.282c0.13,0.064,0.293,0.101,0.479,0.104h0.071
		c0.152-0.004,0.281-0.034,0.395-0.078c0.133-0.065,0.232-0.146,0.313-0.264c0.084-0.104,0.146-0.238,0.185-0.387
		c0.029-0.146,0.047-0.313,0.051-0.492c0.004-0.167-0.016-0.33-0.035-0.47c-0.024-0.153-0.078-0.289-0.154-0.4
		c-0.07-0.121-0.18-0.212-0.309-0.284c-0.125-0.065-0.279-0.103-0.465-0.105c-0.189-0.001-0.346,0.021-0.478,0.077
		c-0.131,0.06-0.233,0.147-0.317,0.258c-0.08,0.109-0.138,0.24-0.168,0.399c-0.031,0.139-0.056,0.307-0.056,0.486
		c-0.011,0.17,0.002,0.329,0.028,0.47C199.846,13.859,199.896,13.995,199.967,14.109 M200.346,13.248
		c0-0.114,0.006-0.223,0.014-0.336c0.011-0.106,0.031-0.207,0.07-0.295c0.029-0.078,0.077-0.14,0.141-0.189
		c0.041-0.042,0.111-0.064,0.197-0.064h0.029c0.104,0,0.178,0.027,0.229,0.076c0.054,0.051,0.103,0.123,0.125,0.205
		c0.037,0.089,0.054,0.192,0.06,0.296c0.001,0.122,0.001,0.226,0.001,0.328c-0.001,0.104-0.007,0.216-0.016,0.33
		c-0.014,0.107-0.045,0.203-0.07,0.288c-0.033,0.079-0.077,0.15-0.137,0.194c-0.047,0.04-0.11,0.059-0.195,0.063h-0.027
		c-0.105-0.005-0.188-0.03-0.236-0.067c-0.059-0.065-0.098-0.133-0.129-0.212c-0.029-0.094-0.049-0.188-0.053-0.3
		C200.342,13.449,200.336,13.343,200.346,13.248"/>
	<path fill="#2B2523" d="M202.754,12.997l0.704,1.743l0.47,0.074l0.37-2.379l-0.438-0.072l-0.229,1.47l-0.646-1.601l-0.56-0.086
		l-0.015,0.108c0,0-0.039,0.314-0.059,0.385l-0.291,1.887l0.436,0.07L202.754,12.997z"/>
	<path fill="#2B2523" d="M204.643,15.004l0.461-0.619l0.666,0.192l0.066,0.775l0.553,0.156l-0.24-2.582l-0.365-0.106l-1.573,2.054
		L204.643,15.004z M205.702,13.601l0.046,0.602l-0.412-0.121L205.702,13.601z"/>
	<polygon fill="#2B2523" points="208.034,15.807 207.256,15.473 208.072,13.608 207.58,13.398 206.615,15.605 207.884,16.161 	"/>
	<path fill="#2B2523" d="M176.51,34.058h0.01c0.119,0,0.225-0.03,0.329-0.075c0.099-0.049,0.185-0.135,0.259-0.246
		c0.068-0.114,0.11-0.259,0.146-0.46c0.025-0.204,0.02-0.367-0.028-0.498c-0.035-0.134-0.101-0.249-0.191-0.322
		c-0.084-0.073-0.185-0.129-0.304-0.164c-0.101-0.025-0.205-0.047-0.313-0.067l-1.486-0.205l-0.075,0.467l1.531,0.222
		c0.079,0.008,0.155,0.024,0.233,0.041c0.06,0.01,0.11,0.033,0.172,0.069c0.043,0.031,0.074,0.08,0.095,0.135
		c0.021,0.044,0.034,0.125,0.018,0.274c-0.019,0.097-0.043,0.162-0.087,0.204c-0.044,0.046-0.102,0.076-0.162,0.09
		c-0.062,0.015-0.131,0.019-0.207,0.015c-0.078-0.003-0.146-0.012-0.203-0.021l-1.508-0.214l-0.066,0.529l1.486,0.193
		C176.283,34.044,176.401,34.055,176.51,34.058"/>
	<path fill="#2B2523" d="M175.588,31.31l1.879,0.451l0.102-0.43l-1.584-0.38l1.809-0.555l0.117-0.464l-2.362-0.567l-0.101,0.432
		l1.455,0.347l-1.673,0.51l-0.122,0.54l0.104,0.027C175.212,31.221,175.524,31.294,175.588,31.31"/>
	
		<rect x="175.787" y="28.535" transform="matrix(-0.9544 -0.2984 0.2984 -0.9544 337.3433 109.0828)" fill="#2B2523" width="2.425" height="0.506"/>
	<polygon fill="#2B2523" points="178.793,27.481 176.818,25.744 176.664,26.156 177.964,27.298 176.226,27.286 176.025,27.822 
		178.669,27.811 	"/>
	<polygon fill="#2B2523" points="179.779,25.134 179.44,24.976 179.08,25.76 178.437,25.464 178.687,24.92 178.359,24.771 
		178.099,25.311 177.564,25.063 177.901,24.337 177.555,24.173 177.002,25.377 179.199,26.384 	"/>
	<path fill="#2B2523" d="M180.21,24.316l-0.935-0.507l1.259-0.063l0.284-0.52l-1.322,0.063c0.004-0.024,0.009-0.043,0.009-0.064
		c0.021-0.086,0.022-0.168,0.011-0.25c-0.011-0.082-0.045-0.159-0.09-0.234c-0.054-0.076-0.126-0.137-0.225-0.187
		c-0.111-0.073-0.23-0.104-0.341-0.106c-0.103,0-0.19,0.028-0.279,0.073c-0.076,0.052-0.153,0.112-0.22,0.195
		c-0.056,0.078-0.121,0.164-0.176,0.259l-0.353,0.627l2.128,1.174L180.21,24.316z M179.036,23.477
		c-0.025,0.057-0.06,0.104-0.079,0.155l-0.559-0.309l0.063-0.109c0.025-0.049,0.057-0.095,0.089-0.139
		c0.036-0.035,0.067-0.06,0.107-0.074c0.034-0.019,0.069-0.025,0.106-0.025c0.039,0,0.088,0.012,0.142,0.04
		c0.071,0.042,0.131,0.095,0.15,0.135c0.021,0.053,0.035,0.101,0.034,0.154C179.076,23.365,179.066,23.417,179.036,23.477"/>
	<path fill="#2B2523" d="M179.761,22.192h0.021c0.103,0,0.208-0.024,0.315-0.068c0.095-0.036,0.185-0.084,0.279-0.139
		c0.085-0.055,0.163-0.098,0.243-0.141c0.074-0.031,0.154-0.053,0.211-0.061c0.057-0.004,0.107,0.008,0.158,0.034
		c0.096,0.065,0.136,0.127,0.141,0.2c0.012,0.076-0.016,0.168-0.09,0.265c-0.021,0.041-0.055,0.084-0.09,0.121
		c-0.035,0.039-0.07,0.077-0.108,0.101c-0.038,0.035-0.065,0.068-0.106,0.094c-0.036,0.024-0.067,0.046-0.098,0.059l-0.153,0.091
		l0.407,0.27l0.064-0.053c0.014-0.01,0.034-0.033,0.063-0.063c0.021-0.025,0.061-0.057,0.097-0.093
		c0.034-0.04,0.069-0.085,0.106-0.13c0.038-0.049,0.078-0.1,0.112-0.152c0.06-0.092,0.112-0.193,0.151-0.295
		c0.039-0.107,0.06-0.213,0.06-0.32c0-0.103-0.026-0.205-0.075-0.302c-0.056-0.099-0.131-0.188-0.244-0.256
		c-0.11-0.079-0.235-0.116-0.357-0.116c-0.111,0-0.223,0.021-0.328,0.064c-0.098,0.037-0.192,0.088-0.289,0.146
		c-0.086,0.057-0.17,0.109-0.256,0.143c-0.078,0.036-0.14,0.056-0.211,0.073c-0.048,0.013-0.094,0-0.144-0.036
		c-0.05-0.035-0.08-0.076-0.089-0.14c-0.006-0.071,0.02-0.136,0.07-0.22c0.035-0.037,0.063-0.086,0.097-0.116
		c0.028-0.042,0.073-0.073,0.112-0.104c0.035-0.03,0.065-0.052,0.097-0.078l0.228-0.15l-0.408-0.263l-0.064,0.058
		c-0.042,0.04-0.091,0.089-0.15,0.161c-0.061,0.062-0.123,0.144-0.186,0.239c-0.136,0.207-0.204,0.402-0.199,0.59
		c0.01,0.197,0.105,0.365,0.284,0.476C179.537,22.161,179.656,22.192,179.761,22.192"/>
	<polygon fill="#2B2523" points="182.37,21.029 180.438,19.569 180.136,19.967 182.059,21.433 	"/>
	<path fill="#2B2523" d="M183.032,20.224c0.128-0.135,0.229-0.268,0.321-0.406c0.09-0.14,0.146-0.29,0.17-0.434
		c0.021-0.156-0.008-0.319-0.08-0.476c-0.074-0.162-0.207-0.327-0.398-0.501c-0.189-0.166-0.361-0.283-0.527-0.342
		c-0.168-0.049-0.33-0.064-0.483-0.028c-0.15,0.028-0.289,0.1-0.425,0.21c-0.121,0.103-0.244,0.219-0.365,0.354l-0.331,0.358
		l1.806,1.61L183.032,20.224z M181.6,18.728c0.096-0.099,0.178-0.162,0.264-0.199c0.082-0.039,0.168-0.045,0.25-0.031
		c0.09,0.02,0.177,0.044,0.265,0.104c0.101,0.055,0.2,0.13,0.306,0.223c0.226,0.206,0.351,0.401,0.371,0.57
		c0.021,0.167-0.051,0.331-0.205,0.512l-0.045,0.05l-1.281-1.141L181.6,18.728z"/>
	<path fill="#2B2523" d="M184.318,18.876l-0.275-0.721l0.521-0.449l0.69,0.36l0.431-0.365l-2.313-1.206l-0.289,0.25l0.889,2.43
		L184.318,18.876z M183.7,17.237l0.542,0.287l-0.331,0.281L183.7,17.237z"/>
	<path fill="#2B2523" d="M186.275,17.328c0.154-0.09,0.289-0.198,0.408-0.3c0.127-0.115,0.225-0.237,0.282-0.375
		c0.06-0.146,0.079-0.311,0.054-0.48c-0.024-0.172-0.107-0.367-0.25-0.582c-0.14-0.217-0.279-0.371-0.414-0.473
		c-0.148-0.095-0.304-0.156-0.453-0.165c-0.15-0.005-0.313,0.033-0.467,0.094c-0.152,0.066-0.299,0.146-0.453,0.239l-0.412,0.265
		l1.305,2.033L186.275,17.328z M185.297,15.509c0.111-0.069,0.215-0.104,0.307-0.124c0.088-0.002,0.168,0.009,0.246,0.041
		c0.082,0.031,0.158,0.094,0.228,0.166c0.082,0.082,0.155,0.187,0.229,0.298c0.168,0.261,0.238,0.478,0.211,0.646
		c-0.031,0.17-0.138,0.313-0.342,0.448l-0.059,0.029l-0.92-1.439L185.297,15.509z"/>
	<path fill="#2B2523" d="M201.264,29.351c0.141,0.02,0.215,0.236,0.738,0.236c0.396,0.013,0.449-0.243,0.5-0.248
		c0.027-0.011,0.061-0.014,0.075-0.054c-0.021-0.038-0.254-0.122-0.579-0.136c-0.43-0.012-0.791,0.115-0.836,0.164
		C201.193,29.328,201.217,29.344,201.264,29.351"/>
	<path fill="#2B2523" d="M200.246,27.194c0.096-0.017,0.186-0.05,0.277-0.055c0.119-0.014,0.213-0.004,0.313,0.065
		c0.023,0.025,0.098,0.166,0.277,0.156c0.093,0.003,0.211-0.031,0.238-0.146c0.062-0.03,0.184,0.045,0.223,0.023
		c0.074-0.021,0.117-0.087,0.152-0.144c0.026-0.049,0.086-0.13,0.026-0.197c-0.901-0.491-1.606,0.265-1.606,0.265
		C200.12,27.23,200.165,27.215,200.246,27.194"/>
	<path fill="#2B2523" d="M209.191,45.995c0.095-0.031,0.354-0.079,0.514-0.041c0.082,0.017,0.146,0.182,0.377,0.158
		c0.08-0.008,0.204-0.131,0.248-0.221c0.057-0.06,0.271-0.124,0.305-0.134c0.072-0.014,0.094-0.132-0.01-0.192
		c-0.949-0.37-1.533,0.405-1.533,0.405C209.068,46.041,209.109,46.026,209.191,45.995"/>
	<path fill="#2B2523" d="M187.241,46.432c-0.076,0.112-0.11,0.24-0.104,0.318c0.002,0.073,0.117,0.05,0.146,0.036
		c0.03-0.019,0.061-0.043,0.077-0.055c0.035-0.011,0.066-0.008,0.066-0.008s0.02,0.053,0.055,0.068
		c0.041,0.018,0.082,0.018,0.082,0.018s0.066,0,0.113-0.023c0.029-0.019,0.07-0.077,0.088-0.164
		c0.012-0.093,0.094-0.114,0.166-0.211c0.086-0.107,0.187-0.323,0.147-0.33C187.695,46.026,187.443,46.136,187.241,46.432"/>
	<path fill="#2B2523" d="M210.438,47.932c0.125,0.013,0.211,0.213,0.705,0.196c0.375-0.014,0.422-0.245,0.465-0.265
		c0.023-0.008,0.054-0.012,0.066-0.04c-0.018-0.041-0.244-0.117-0.552-0.117c-0.407,0.007-0.75,0.152-0.784,0.194
		C210.366,47.913,210.393,47.928,210.438,47.932"/>
	<path fill="#2B2523" d="M231.523,44.69c-0.021,0.003-0.045,0.016-0.066,0.024c-0.201,0.069-3.295,1.032-4.703,1.469
		c0.439-2.69,0.571-6.47-0.564-9.832c0.34-0.063,0.658-0.131,0.931-0.196c0.215-0.052,0.375-0.235,0.392-0.451
		c0.377-4.245-0.818-9.25-3.271-13.73c-2.683-4.899-6.55-8.565-10.894-10.334c-0.222-0.087-0.476-0.017-0.617,0.172
		c-0.248,0.333-0.604,0.807-1.006,1.34c-2.502-1.662-6.492-3.461-12.063-3.461c-5.425,0-9.271,1.67-11.701,3.262
		c-0.345-0.449-0.646-0.845-0.858-1.141c-0.14-0.188-0.395-0.259-0.615-0.172c-4.346,1.769-8.21,5.435-10.895,10.334
		c-2.46,4.48-3.646,9.485-3.272,13.73c0.013,0.216,0.172,0.399,0.395,0.451c0.256,0.064,0.557,0.131,0.885,0.187
		c-1.169,3.342-1.067,7.053-0.658,9.706c-0.086-0.023-0.176-0.048-0.24-0.066c-3.996-1.013-4.001-1.013-4.111-1.013
		c-0.232,0-0.431,0.159-0.496,0.376c-1,3.676-0.349,17.04,7.155,26.783c3.869,5.024,8.91,8.39,15.064,10.074
		c-0.379,0.766-0.793,1.541-1.133,2.14c-0.078,0.135-0.078,0.291-0.018,0.428c0.07,0.14,0.225,0.133,0.367,0.148
		c1.938,0.284,5.629,1.195,5.896,1.212c0.21,0.044,0.458-0.04,0.617-0.211c0.319-0.349,0.677-1.31,1.028-2.571
		c1.045,0.075,2.109,0.121,3.205,0.121h0.02c0.898,0,1.78-0.033,2.654-0.092c0.34,1.245,0.699,2.197,1.02,2.542
		c0.157,0.171,0.402,0.255,0.609,0.211c0.273-0.017,3.963-0.928,5.898-1.212c0.147-0.018,0.297-0.01,0.367-0.148
		c0.061-0.137,0.055-0.293-0.014-0.428c-0.342-0.595-0.749-1.354-1.118-2.109c5.94-1.678,10.89-5.061,14.752-10.119
		c7.815-10.25,8.532-24.076,7.693-27.065C232.075,44.775,231.799,44.615,231.523,44.69 M226.572,47.277
		c0.095,0,0.156,0.029,0.216,0.093c0.104,0.155-0.13,0.604-0.338,1.01c-0.308,0.593-0.622,1.197-0.226,1.429
		c0.053,0.027,0.123,0.043,0.213,0.043c0.063,0,0.135-0.006,0.201-0.014c0.074-0.007,0.154-0.011,0.23-0.011
		c0.259,0,0.388,0.082,0.434,0.284c0.081,0.35-0.074,0.552-0.339,0.839c-0.116,0.129-0.296,0.271-0.483,0.418
		c-0.476,0.385-1.012,0.81-0.875,1.243c0.054,0.183,0.179,0.275,0.297,0.35c0.111,0.089,0.205,0.148,0.227,0.307
		c0.014,0.147-0.406,0.639-0.867,1.151c-0.117-0.174-0.262-0.312-0.457-0.401l-0.015-0.011l-0.114-0.046
		c-0.02-0.014-0.042-0.021-0.06-0.023c0.298-1.791,0.452-3.679,0.289-4.775c-0.011-0.053-0.017-0.096-0.025-0.145
		c-0.034-0.439-0.375-0.451-0.414-0.063c0,0.033,0,0.074-0.007,0.111c-0.078,1.029-0.391,3.108-0.755,4.99
		c-0.233,0.137-0.459,0.342-0.64,0.588c-0.758-1.221-0.893-1.625-0.859-1.73c0.051-0.15,0.15-0.197,0.275-0.258
		c0.131-0.057,0.271-0.125,0.363-0.293c0.211-0.402-0.242-0.924-0.64-1.379c-0.168-0.182-0.312-0.354-0.397-0.496
		c-0.184-0.295-0.34-0.543-0.188-0.893c0.063-0.146,0.17-0.22,0.335-0.22c0.116,0,0.242,0.035,0.37,0.074
		c0.166,0.041,0.313,0.075,0.412,0.041c0.281-0.095,0.299-0.408,0.215-0.789c-0.04-0.203-0.107-0.429-0.176-0.654
		c-0.131-0.436-0.284-0.924-0.141-1.055c0.146-0.133,0.352-0.024,0.574,0.113c0.166,0.102,0.341,0.206,0.514,0.206
		c0.075,0,0.137-0.012,0.189-0.04c0.236-0.123,0.33-0.594,0.4-1.063c0.015-0.073,0.024-0.141,0.035-0.177
		c0.094-0.42,0.246-0.63,0.455-0.65l0.074,0.007h0.034c0.323,0.068,0.364,0.525,0.358,0.723c0,0.044-0.006,0.122-0.013,0.204
		c-0.045,0.462-0.067,0.929,0.134,1.08c0.075,0.068,0.164,0.095,0.274,0.095c0.099,0,0.204-0.024,0.31-0.057
		c0.058-0.021,0.111-0.045,0.176-0.056C226.297,47.327,226.45,47.277,226.572,47.277 M225.909,55.438c0.202,0,0.37,0.174,0.37,0.379
		c0,0.203-0.168,0.373-0.37,0.373c-0.21,0-0.384-0.17-0.384-0.373C225.525,55.611,225.699,55.438,225.909,55.438 M224.068,59.463
		c0.076,0.092,0.209,0.131,0.375,0.176c0.346,0.096,0.57,0.18,0.527,0.484c-0.058,0.379-0.314,0.518-0.621,0.674
		c-0.152,0.077-0.373,0.146-0.599,0.215c-0.58,0.188-1.245,0.396-1.271,0.852c-0.015,0.193,0.082,0.322,0.155,0.439
		c0.078,0.12,0.146,0.211,0.108,0.358c-0.034,0.136-0.563,0.446-1.58,0.94c0.025-0.092,0.041-0.181,0.044-0.271
		c0.01-0.208-0.03-0.399-0.128-0.567c0.945-1.637,1.729-3.437,1.915-4.505c0.128-0.425-0.097-0.569-0.271-0.211
		c-0.317,0.937-1.258,2.609-2.227,4.199c-0.125-0.05-0.27-0.077-0.415-0.077c-0.265,0-0.528,0.077-0.79,0.211
		c-0.171-1.023-0.154-1.352-0.092-1.425c0.092-0.124,0.216-0.129,0.354-0.146c0.137-0.012,0.291-0.02,0.442-0.146
		c0.335-0.302,0.094-0.954-0.115-1.515c-0.081-0.229-0.164-0.44-0.19-0.608c-0.069-0.333-0.125-0.618,0.146-0.897
		c0.069-0.074,0.156-0.117,0.238-0.117c0.152,0,0.324,0.117,0.471,0.228c0.131,0.101,0.25,0.185,0.378,0.187
		c0.448,0,0.497-0.676,0.54-1.34c0.033-0.451,0.064-0.961,0.239-1.031c0.198-0.076,0.346,0.107,0.5,0.307
		c0.171,0.213,0.341,0.434,0.606,0.396c0.26-0.025,0.514-0.43,0.752-0.849c0.039-0.063,0.07-0.122,0.092-0.153
		c0.234-0.359,0.447-0.508,0.66-0.445l0.062,0.025l0.072,0.041c0.233,0.197,0.11,0.605,0.042,0.78
		c-0.018,0.043-0.049,0.104-0.086,0.183c-0.209,0.418-0.391,0.844-0.256,1.063c0.135,0.229,0.435,0.233,0.717,0.244
		c0.33,0.004,0.537,0.022,0.588,0.214c0.055,0.182-0.334,0.523-0.664,0.829C224.292,58.65,223.775,59.111,224.068,59.463
		 M221.561,64.715c0,0.196-0.164,0.362-0.375,0.362c-0.203,0-0.369-0.166-0.369-0.362c0-0.213,0.166-0.383,0.369-0.383
		C221.396,64.332,221.561,64.502,221.561,64.715 M218.323,67.387c0.034,0.106,0.157,0.194,0.297,0.289
		c0.287,0.209,0.465,0.366,0.319,0.645c-0.182,0.332-0.475,0.369-0.811,0.414c-0.148,0.017-0.384,0.014-0.641,0
		c-0.143-0.006-0.295-0.012-0.444-0.012c-0.405,0-0.886,0.043-1.035,0.377c-0.079,0.178-0.044,0.326-0.015,0.463
		c0.037,0.135,0.063,0.246-0.021,0.375c-0.087,0.129-0.849,0.244-1.604,0.324c0.024-0.197-0.002-0.396-0.087-0.587l-0.043-0.094
		c1.507-1.237,2.935-2.724,3.506-3.692c0.261-0.353,0.1-0.566-0.188-0.287c-0.686,0.832-2.341,2.236-3.925,3.471
		c-0.157-0.057-0.33-0.084-0.528-0.084c-0.113,0-0.23,0.01-0.358,0.027c0.235-1.435,0.401-1.834,0.493-1.889
		c0.125-0.079,0.24-0.057,0.384-0.018c0.144,0.041,0.302,0.07,0.461,0.009c0.433-0.164,0.426-0.853,0.424-1.455
		c0-0.242-0.004-0.466,0.03-0.634c0.052-0.346,0.1-0.629,0.439-0.793c0.062-0.029,0.125-0.047,0.18-0.047
		c0.187,0,0.33,0.211,0.455,0.39c0.092,0.142,0.172,0.259,0.285,0.301c0.045,0.019,0.084,0.026,0.135,0.026
		c0.355,0,0.602-0.555,0.841-1.096c0.188-0.41,0.397-0.881,0.599-0.891c0.194,0,0.26,0.178,0.352,0.463
		c0.078,0.243,0.168,0.521,0.433,0.581c0.239,0.058,0.629-0.243,1-0.543c0.052-0.046,0.104-0.091,0.14-0.112
		c0.359-0.267,0.623-0.32,0.793-0.176l0.026,0.024l0.052-0.05l-0.043,0.063l0.01,0.014c0.219,0.262-0.059,0.637-0.193,0.787
		c-0.028,0.03-0.087,0.082-0.145,0.145c-0.336,0.322-0.664,0.658-0.613,0.914c0.056,0.257,0.324,0.367,0.589,0.471
		c0.313,0.125,0.5,0.207,0.483,0.402c-0.018,0.193-0.494,0.384-0.914,0.55C218.818,66.702,218.173,66.954,218.323,67.387
		 M214.359,71.525c0,0.205-0.164,0.373-0.375,0.373c-0.207,0-0.377-0.168-0.377-0.373s0.17-0.375,0.377-0.375
		C214.195,71.15,214.359,71.32,214.359,71.525 M212.305,72.141c0.254,0.213,0.396,0.354,0.317,0.537
		c-0.074,0.18-0.593,0.196-1.043,0.215c-0.679,0.032-1.368,0.061-1.368,0.51c0,0.119,0.088,0.24,0.188,0.377
		c0.197,0.293,0.316,0.5,0.086,0.711c-0.142,0.125-0.289,0.184-0.473,0.184c-0.131,0-0.271-0.027-0.432-0.064
		c-0.165-0.032-0.375-0.114-0.602-0.213c-0.367-0.135-0.779-0.301-1.095-0.301c-0.185,0-0.332,0.057-0.429,0.158
		c-0.131,0.143-0.15,0.299-0.164,0.438c-0.016,0.14-0.021,0.254-0.146,0.343c0,0-0.043,0.022-0.17,0.022
		c-0.549,0-1.996-0.373-2.727-0.563c0.191-0.061,0.378-0.123,0.564-0.188c2.06-0.676,4.312-1.757,5.285-2.58
		c0.359-0.254,0.289-0.506-0.072-0.338c-1,0.61-3.314,1.471-5.346,2.137c-0.177,0.061-0.371,0.127-0.555,0.186
		c-0.004-0.027-0.004-0.052-0.009-0.079c0.916-1.719,1.265-2.125,1.394-2.151c0.143-0.033,0.247,0.033,0.36,0.113
		c0.108,0.076,0.229,0.163,0.415,0.163h0.025c0.451-0.019,0.68-0.667,0.879-1.241c0.082-0.226,0.158-0.437,0.238-0.586
		c0.165-0.3,0.311-0.556,0.69-0.597c0.306-0.034,0.385,0.194,0.478,0.528c0.038,0.162,0.078,0.31,0.163,0.382
		c0.07,0.06,0.149,0.088,0.232,0.088c0.311,0,0.687-0.396,1.055-0.771c0.324-0.344,0.666-0.703,0.841-0.65
		c0.194,0.063,0.203,0.255,0.194,0.558c-0.009,0.257-0.019,0.548,0.206,0.69c0.061,0.035,0.135,0.056,0.229,0.056
		c0.271,0,0.647-0.146,0.896-0.231c0.072-0.031,0.133-0.055,0.173-0.066c0.409-0.123,0.673-0.098,0.79,0.074l0.034,0.054
		l0.006,0.019l0.009,0.021c0.107,0.317-0.275,0.582-0.451,0.679c-0.039,0.018-0.104,0.051-0.186,0.079
		c-0.428,0.195-0.848,0.408-0.887,0.66C211.863,71.76,212.089,71.952,212.305,72.141 M199.962,70.514
		c-1.519,0-2.944-1.383-3.696-3.285c0.541-0.229,2.2-0.903,2.396-0.85c0.234,0.109,0.745,0.329,0.745,0.342v2.373
		c0,0.352,1.094,0.409,1.335,0.081c0.009-0.012,0-0.579,0-0.579c-0.166,0.158-0.604,0.194-0.667,0.01
		c-0.003-0.014-0.011-1.65-0.011-1.686c0,0,0.125,0.041,0.25-0.033c0.08-0.054,0.106-0.115,0.172-0.139
		c0.09-0.034,0.156,0.023,0.273-0.033c0.051-0.027,0.121-0.105,0.172-0.129c0.078-0.027,0.194,0.016,0.264-0.016
		c0.062-0.029,0.13-0.104,0.182-0.123c0.088-0.028,0.198,0.057,0.387-0.123c0.407,0.156,0.705,0.035,0.821,0.035
		c0,0,0.828,0.361,1.163,0.564C203.027,69.063,201.604,70.514,199.962,70.514 M200.751,76.499c-0.536,0.021-0.833,0-1.373,0
		c-0.323-0.633-0.446-3.41-0.136-4.442c0.725,0,0.92-0.027,1.509,0C201.036,73.109,201.109,75.854,200.751,76.499 M198.611,76.52
		c-0.739-0.023-1.303-0.076-1.403-0.168c-0.374-0.326-0.83-3.008,0.019-4.084c0.082-0.095,0.576-0.17,1.25-0.209
		C198.093,73.132,197.98,75.346,198.611,76.52 M198.982,58.355c0.461-0.295,1.338-0.754,1.895,0.047
		c0.346,0.504,0.833,1.66,0.957,2.436c-1.273-0.29-2.57-0.131-3.332,0c-0.088-0.279,0.95-1.898,1.548-2.516
		c-0.569,0-1.013,0.584-1.348,1.005C198.521,59.355,198.121,58.998,198.982,58.355 M198.852,56.445c0-0.584,0.52-1.051,1.164-1.051
		c0.641,0,1.166,0.467,1.166,1.051c0,0.063-0.01,0.117-0.021,0.179c-0.364-0.115-0.745-0.179-1.136-0.179
		c-0.397,0-0.783,0.063-1.159,0.183C198.857,56.57,198.852,56.509,198.852,56.445 M202.585,64.275
		c-0.461-0.383-1.131-0.666-1.538-0.652c-0.395,0.01-1.052,0.314-1.052,0.314v-2.619c0,0,0.272-0.205,0.524,0
		c-0.014-0.006-0.014,1.279-0.014,1.279c0.858,0.037,2.877,0.131,3.727,0.434c0.033,0.427,0,1.24-0.019,1.471
		C203.825,64.449,203.18,64.357,202.585,64.275 M204.163,65.042c-0.056,0.425-0.125,0.84-0.228,1.229
		c-0.473-0.176-1.25-0.449-1.297-0.444c-0.24,0.052-0.379,0.052-0.589-0.048c-0.446-0.268-0.586-0.75-1.004-1.106
		c-0.446,0-1.017,0.292-1.271,0.248c-0.254-0.036-0.211-0.267-0.211-0.267c0.041-0.021,0.312-0.129,0.319-0.135
		c0.241-0.24,0.816-0.447,1.15-0.479c0,0,0.575,0.051,1.284,0.703C202.781,64.818,203.839,65,204.163,65.042 M199.51,62.637
		l-0.007,0.768c0,0-0.841,0.168-1.442,0.895c-0.19,0.145-1.642,0.596-2.305,0.805c-0.046-0.43-0.076-0.865-0.076-1.313
		c0-0.074,0.004-0.554,0.004-0.627C196.285,62.913,198.374,62.623,199.51,62.637 M198.406,64.661c0.375-0.619,1.1-0.769,1.1-0.769
		s-0.003,0.369-0.003,0.355c0,0.003-0.228,0.134-0.323,0.281c0,0.248,0.108,0.582,0.355,0.68c0.341,0.132,0.859,0.012,1.222-0.049
		c0.104,0.132,0.388,0.637,0.597,0.82c-0.168,0.121-0.273,0.049-0.338,0.064c-0.076,0.02-0.084,0.082-0.152,0.111
		c-0.065,0.033-0.151,0.017-0.217,0.037c-0.069,0.027-0.076,0.095-0.15,0.132c-0.118,0.063-0.174-0.017-0.289,0.032
		c-0.082,0.035-0.068,0.145-0.27,0.082c-0.146-0.047-0.332-0.131-0.451-0.191c-0.397-0.206-0.555-0.398-0.783-0.404
		c-0.344-0.021-2.113,0.538-2.641,0.756c-0.103-0.346-0.158-0.615-0.228-0.994C196.359,65.406,198.357,64.738,198.406,64.661
		 M201.6,72.063c0.641,0.051,1.168,0.121,1.273,0.229c0.723,0.701,0.512,3.493-0.068,4.016c-0.08,0.08-0.586,0.141-1.25,0.176
		C202.02,75.333,202.1,73.689,201.6,72.063 M201.63,70.854c1.99-1.018,3.413-3.816,3.413-7.119c0-3.27-1.374-5.906-3.327-6.883
		l0.858,0.012c0,0,0.4-0.021,0.426-0.196c0.023-0.177-0.361-0.278-0.361-0.278l-0.93-0.263c-0.016-0.036-0.027-0.077-0.039-0.108
		l0.811-0.511c0,0,0.324-0.233,0.252-0.399c-0.082-0.16-0.457-0.035-0.457-0.035l-0.952,0.302c-0.042-0.032-0.07-0.069-0.107-0.099
		l0.462-0.862c0,0,0.131-0.31-0.021-0.41c-0.143-0.104-0.381,0.132-0.381,0.132l-0.698,0.762c-0.05-0.018-0.106-0.029-0.161-0.047
		l-0.133-1c0,0-0.067-0.346-0.245-0.346c-0.181,0-0.24,0.346-0.24,0.346l-0.129,0.99c-0.063,0.01-0.116,0.026-0.177,0.049
		l-0.688-0.754c0,0-0.254-0.236-0.404-0.134c-0.146,0.103,0.013,0.412,0.013,0.412l0.438,0.827
		c-0.047,0.039-0.084,0.072-0.121,0.119l-0.965-0.307c0,0-0.338-0.082-0.423,0.079c-0.069,0.157,0.22,0.359,0.22,0.359l0.797,0.5
		c-0.017,0.044-0.021,0.083-0.03,0.125l-0.964,0.272c0,0-0.387,0.102-0.355,0.277c0.031,0.177,0.428,0.195,0.428,0.195l0.893-0.01
		c-1.965,0.971-3.385,3.612-3.385,6.881c0,3.295,1.42,6.082,3.395,7.106c-0.759,0.126-1.374,0.333-1.734,0.589
		c-1.662-1.464-2.959-4.091-3.241-7.24c0,0,0.881-0.271,0.936-1.603c0.034-1.123-0.936-1.582-0.936-1.582
		c0.653-4.216,3.333-7.833,6.653-7.833c3.351,0,5.828,3.43,6.53,7.795c0.025-0.025-0.839,0.374-0.782,1.627
		c0.063,1.383,0.825,1.624,0.825,1.598c-0.256,3.26-1.563,5.883-3.204,7.301C203.05,71.216,202.424,70.984,201.63,70.854
		 M189.732,71.725c0.983,0.824,3.223,1.905,5.281,2.58c0.158,0.051,0.313,0.102,0.457,0.152c-0.759,0.197-2.037,0.521-2.549,0.521
		c-0.127,0-0.156-0.018-0.167-0.021c-0.123-0.093-0.136-0.208-0.147-0.351c-0.014-0.133-0.027-0.289-0.162-0.433
		c-0.101-0.108-0.24-0.161-0.428-0.161c-0.32,0-0.728,0.166-1.097,0.307c-0.224,0.091-0.433,0.179-0.599,0.212
		c-0.166,0.036-0.307,0.063-0.428,0.063c-0.193,0-0.34-0.056-0.481-0.189c-0.226-0.209-0.11-0.415,0.094-0.709
		c0.095-0.135,0.181-0.258,0.181-0.372c-0.004-0.451-0.69-0.481-1.367-0.505c-0.45-0.022-0.965-0.041-1.041-0.219
		c-0.086-0.181,0.063-0.33,0.316-0.543c0.213-0.187,0.438-0.379,0.398-0.636c-0.039-0.258-0.454-0.467-0.885-0.661
		c-0.08-0.037-0.146-0.068-0.187-0.089c-0.169-0.092-0.546-0.346-0.45-0.661l0.045-0.099c0.121-0.179,0.381-0.205,0.793-0.08
		c0.043,0.015,0.102,0.033,0.174,0.062c0.254,0.094,0.627,0.237,0.893,0.237c0.102,0,0.178-0.021,0.236-0.053
		c0.224-0.147,0.209-0.438,0.203-0.69c-0.006-0.31-0.002-0.498,0.19-0.556c0.181-0.054,0.521,0.304,0.847,0.642
		c0.363,0.383,0.74,0.773,1.047,0.773c0.091,0,0.17-0.027,0.236-0.087c0.084-0.072,0.118-0.216,0.17-0.38
		c0.08-0.338,0.172-0.565,0.476-0.531c0.356,0.04,0.503,0.251,0.683,0.598c0.085,0.15,0.16,0.364,0.245,0.586
		c0.196,0.574,0.426,1.223,0.881,1.237h0.025c0.183,0,0.305-0.086,0.413-0.159c0.111-0.078,0.216-0.144,0.359-0.113
		c0.135,0.026,0.502,0.455,1.504,2.363c-0.246-0.078-0.488-0.156-0.736-0.236c-2.035-0.668-4.348-1.526-5.346-2.137
		C189.448,71.221,189.378,71.473,189.732,71.725 M186.159,69.04c-1.569-1.228-3.201-2.614-3.886-3.438
		c-0.283-0.279-0.438-0.064-0.176,0.287c0.569,0.975,2.014,2.471,3.522,3.713c-0.101,0.215-0.121,0.445-0.068,0.666
		c-0.782-0.08-1.601-0.195-1.688-0.33c-0.088-0.129-0.065-0.24-0.028-0.375c0.032-0.137,0.069-0.285-0.011-0.463
		c-0.145-0.334-0.629-0.377-1.036-0.377c-0.149,0-0.3,0.006-0.44,0.012c-0.25,0.014-0.494,0.017-0.637,0
		c-0.344-0.045-0.639-0.082-0.818-0.414c-0.146-0.277,0.034-0.436,0.33-0.645c0.131-0.095,0.256-0.183,0.284-0.289
		c0.156-0.433-0.489-0.685-1.107-0.935c-0.428-0.166-0.902-0.356-0.915-0.55c-0.017-0.195,0.169-0.277,0.476-0.402
		c0.27-0.104,0.545-0.214,0.596-0.471c0.043-0.256-0.274-0.592-0.606-0.911c-0.065-0.063-0.114-0.116-0.154-0.147
		c-0.125-0.15-0.411-0.525-0.195-0.787l0.045-0.05c0.185-0.151,0.438-0.088,0.799,0.175c0.029,0.022,0.086,0.067,0.135,0.113
		c0.34,0.275,0.689,0.551,0.939,0.551c0.021,0,0.047-0.002,0.065-0.008c0.26-0.061,0.351-0.338,0.431-0.581
		c0.088-0.284,0.164-0.46,0.363-0.46c0.193,0.008,0.398,0.477,0.58,0.889c0.241,0.539,0.488,1.096,0.848,1.096h0.002
		c0.045,0,0.088-0.01,0.131-0.027c0.11-0.042,0.193-0.16,0.285-0.301c0.123-0.178,0.264-0.391,0.463-0.391
		c0.049,0,0.108,0.019,0.166,0.047c0.352,0.166,0.395,0.449,0.451,0.793c0.027,0.168,0.027,0.393,0.027,0.635
		c-0.005,0.604-0.005,1.291,0.421,1.455c0.16,0.063,0.324,0.031,0.464-0.008c0.143-0.039,0.26-0.063,0.376,0.017
		c0.101,0.054,0.253,0.437,0.482,1.797c-0.095-0.016-0.188-0.021-0.275-0.021C186.555,68.904,186.341,68.957,186.159,69.04
		 M186.381,71.525c0,0.201-0.171,0.367-0.372,0.367c-0.21,0-0.376-0.166-0.376-0.367c0-0.207,0.166-0.375,0.376-0.375
		C186.21,71.15,186.381,71.318,186.381,71.525 M176.838,58.259c0.188,1.068,0.969,2.868,1.917,4.505
		c-0.088,0.168-0.14,0.359-0.131,0.567c0.006,0.091,0.021,0.181,0.046,0.269c-1.019-0.492-1.55-0.803-1.582-0.938
		c-0.031-0.148,0.032-0.238,0.109-0.359c0.081-0.115,0.164-0.246,0.152-0.439c-0.028-0.454-0.687-0.662-1.262-0.85
		c-0.236-0.07-0.451-0.139-0.604-0.216c-0.306-0.157-0.567-0.295-0.621-0.674c-0.044-0.306,0.179-0.39,0.525-0.483
		c0.164-0.047,0.305-0.084,0.377-0.177c0.297-0.353-0.222-0.812-0.724-1.257c-0.333-0.305-0.715-0.648-0.658-0.829
		c0.05-0.19,0.255-0.21,0.584-0.214c0.292-0.012,0.582-0.014,0.718-0.244c0.13-0.221-0.055-0.646-0.254-1.063
		c-0.039-0.08-0.076-0.142-0.089-0.185c-0.071-0.175-0.189-0.583,0.046-0.78v0.002l0.077-0.047l0.042-0.021
		c0.215-0.063,0.426,0.08,0.674,0.445c0.02,0.031,0.045,0.09,0.088,0.153c0.241,0.419,0.496,0.822,0.75,0.849
		c0.273,0.035,0.445-0.185,0.606-0.396c0.16-0.197,0.305-0.383,0.498-0.307c0.183,0.07,0.211,0.58,0.242,1.031
		c0.045,0.664,0.096,1.34,0.556,1.34c0.109-0.002,0.23-0.086,0.364-0.187c0.147-0.108,0.312-0.228,0.462-0.228
		c0.093,0,0.17,0.043,0.252,0.117c0.27,0.279,0.205,0.564,0.143,0.897c-0.029,0.168-0.108,0.381-0.193,0.608
		c-0.21,0.561-0.451,1.213-0.113,1.515c0.146,0.126,0.304,0.134,0.443,0.146c0.14,0.017,0.255,0.021,0.355,0.146
		c0.059,0.073,0.076,0.401-0.1,1.425c-0.245-0.134-0.521-0.211-0.79-0.211c-0.146,0-0.281,0.027-0.412,0.077
		c-0.967-1.59-1.906-3.265-2.226-4.199C176.936,57.689,176.716,57.834,176.838,58.259 M178.806,64.715
		c0,0.196-0.17,0.362-0.372,0.362c-0.211,0-0.381-0.166-0.381-0.362c0-0.213,0.17-0.383,0.381-0.383
		C178.636,64.332,178.806,64.502,178.806,64.715 M174.074,56.189c-0.207,0-0.381-0.17-0.381-0.373c0-0.205,0.174-0.379,0.381-0.379
		c0.208,0,0.375,0.174,0.375,0.379S174.282,56.189,174.074,56.189 M177.987,52.091c0.052-0.063,0.108-0.134,0.17-0.206
		c0.51-0.587,1.188-1.392,1.123-2.326c-0.016-0.186-0.056-0.73-0.565-0.979c-0.034-0.015-0.076-0.024-0.113-0.041
		c0.358-0.088,0.744-0.186,1.162-0.288c0.391-0.104,0.726-0.367,0.931-0.746c0.238-0.435,0.272-0.984,0.099-1.497
		c-0.253-0.742-0.719-2.389-0.654-4.34c1.879-0.372,4.603-0.563,6.736-0.555c0.449,0,0.56-0.525,0.104-0.525
		c-0.414,0-4.936-0.006-6.755-0.008c0.045-0.273,0.094-0.558,0.159-0.841c0.216,0.005,0.851-0.002,0.851-0.002v-0.495h1.849
		l-0.005,0.436l0.835,0.004c0,0,0.221-0.527,0.226-0.953c0.006-0.234-0.104-0.488-0.104-0.488h1.43c0,0-0.112,0.205-0.112,0.471
		c-0.002,0.443,0.237,0.974,0.237,0.974l0.804-0.003v-0.288h0.863v0.31h0.467l0.004-0.455h1.01v0.466l2.272,0.001l0.007,2.276
		c0,0-1.932-1.298-4.129,0.048c-0.662,0.416-1.305,1.066-1.563,1.868c-0.35,1.074-0.084,1.949,0.027,2.209
		c0.332,0.694,1.049,1.248,1.433,1.384c0.317,0.296,0.565,0.751,0.812,0.876c0.153,0.082,0.35-0.089,0.525-0.089
		c0.092,0,0.148,0.143,0.305,0.233c0.192,0.11,0.27,0.142,0.332,0.191c0.119,0.102,0.293,0.232,0.484,0.262
		c0.373,0.051,0.604-0.211,0.798-0.443c0.085-0.095,0.297,0.309,0.278,0.316c-0.69,0.225-1.103,0.928-1.366,1.402
		c-0.276,0.477-0.945,1.988-0.945,1.988s-1.56-0.742-1.888-0.707c-1.773,0.107-2.641,1.074-2.641,1.074s-0.938-0.791-2.254-0.313
		c-1.088,0.396-1.013,1.309-1.013,1.309l-0.69,0.774l0.154,2.097l-0.369,0.18c-0.027-0.539-0.08-1.217-0.359-1.713
		c-0.239-0.412-0.586-0.527-1.075-0.342c-0.128,0.045-0.258,0.129-0.363,0.225c0.572-0.838,1.163-1.803,1.069-2.16
		C178.516,52.428,178.179,52.184,177.987,52.091 M178.186,46.692c-0.07-0.469-0.363-0.699-0.88-0.702
		c-0.274,0-0.604,0.152-0.819,0.258c-0.043,0.012-0.075,0.033-0.105,0.046c-0.054-0.681-0.37-1.584-1.068-1.799l-0.288-0.05
		c-0.048,0-0.093,0-0.14,0.004l-0.031,0.007c-0.305,0.031-0.563,0.164-0.764,0.412c-0.087,0.109-0.149,0.243-0.205,0.381
		c-0.315-2.48-0.319-5.785,0.744-8.723c1.764,0.285,3.761,0.522,4.28,0.566h0.037c0.134,0,0.262-0.052,0.353-0.141
		c0.106-0.092,0.135-0.211,0.215-0.389c0.077-0.197,0.487-1.146,0.785-1.453c0.257-0.278,0.825-0.197,0.962,0.258
		c0.02,0.08,0.02,0.157-0.061,0.256c-3.239,4.193-1.908,9.193-1.381,10.718c0.085,0.241,0.071,0.489-0.031,0.675
		c-0.068,0.122-0.168,0.215-0.272,0.238c-0.5,0.124-0.959,0.236-1.371,0.338C178.204,47.297,178.229,46.984,178.186,46.692
		 M188.824,23.687c0.094,0.211,0.378,0.531,0.57,0.725c0.098,0.103,0.054,0.156-0.115,0.131c-0.276-0.04-0.68-0.084-0.836-0.04
		c-0.168,0.054-0.471,0.342-0.664,0.548c-0.119,0.119-0.172,0.082-0.15-0.085c0.035-0.266,0.075-0.636,0.016-0.791
		c-0.055-0.171-0.354-0.509-0.559-0.716c-0.097-0.106-0.055-0.155,0.104-0.125c0.262,0.042,0.656,0.085,0.863,0.03
		c0.184-0.052,0.444-0.295,0.625-0.491c0.129-0.144,0.18-0.112,0.146,0.072C188.789,23.187,188.759,23.5,188.824,23.687
		 M190.578,28.92c0.088,0.218,0.375,0.527,0.563,0.723c0.099,0.107,0.058,0.153-0.106,0.132c-0.284-0.04-0.685-0.088-0.843-0.037
		c-0.17,0.047-0.467,0.337-0.664,0.544c-0.112,0.112-0.17,0.081-0.145-0.083c0.031-0.266,0.066-0.635,0.014-0.79
		c-0.058-0.17-0.356-0.51-0.559-0.715c-0.1-0.106-0.055-0.155,0.105-0.125c0.261,0.042,0.649,0.083,0.854,0.03
		c0.193-0.055,0.443-0.298,0.62-0.491c0.139-0.141,0.193-0.119,0.155,0.071C190.536,28.413,190.509,28.733,190.578,28.92
		 M195.164,19.811c0.08,0.216,0.361,0.531,0.561,0.724c0.1,0.104,0.055,0.152-0.11,0.129c-0.279-0.034-0.685-0.079-0.849-0.032
		c-0.162,0.045-0.461,0.336-0.656,0.538c-0.116,0.117-0.174,0.085-0.146-0.08c0.039-0.266,0.068-0.633,0.016-0.787
		c-0.062-0.173-0.362-0.512-0.562-0.717c-0.095-0.107-0.056-0.155,0.104-0.125c0.27,0.035,0.65,0.086,0.857,0.024
		c0.186-0.047,0.444-0.289,0.626-0.484c0.129-0.142,0.181-0.117,0.153,0.066C195.118,19.305,195.085,19.622,195.164,19.811
		 M195.85,27.165c0.092,0.214,0.371,0.53,0.563,0.729c0.103,0.101,0.053,0.147-0.112,0.127c-0.277-0.039-0.682-0.082-0.846-0.039
		c-0.157,0.047-0.459,0.339-0.658,0.546c-0.111,0.108-0.165,0.082-0.145-0.091c0.037-0.259,0.07-0.628,0.009-0.784
		c-0.052-0.169-0.354-0.507-0.552-0.715c-0.096-0.104-0.059-0.152,0.104-0.127c0.264,0.045,0.654,0.085,0.852,0.033
		c0.189-0.054,0.449-0.295,0.634-0.492c0.125-0.14,0.186-0.115,0.151,0.072C195.809,26.665,195.777,26.979,195.85,27.165
		 M199.357,27.534c-0.041,0.009-0.516-0.061-1.101,0.689c-0.229,0.307-0.131,0.842,0.021,0.809c0.14-0.033,0.646-0.448,0.64-0.391
		c-0.017,0.11-0.085,0.276-0.17,0.396c-0.065,0.1-0.479,0.327-0.595,0.525c-0.146,0.236,0,0.557-0.031,0.596
		c-0.049,0.078-0.174,0.115-0.204,0.089c-0.165-0.171-0.219-0.784,0.026-1.087c0.099-0.123-0.354-0.436-0.274-0.909
		c0.069-0.355,0.238-0.498,0.447-0.639c0.347-0.237,0.592-0.269,0.954-0.561c0.686-0.543,0.926-0.767,1.469-0.818
		c0.172-0.016,0.631,0.15,0.768,0.19c0.686,0.191,1.104,0.078,1.332-0.014c0.129-0.052,0.293-0.163,0.469-0.125
		c0.137,0.024,0.224,0.207,0.203,0.623c-0.234-0.221-1.108-0.209-1.17,0.082c-0.061,0.27,0.129,1.346,0.062,1.435
		c-0.132,0.166-0.229,0.128-0.461,0.046c-0.142-0.046-0.3,0.078-0.298,0.112c0.008,0.061,0.213,0.089,0.293,0.132
		c0.119,0.052,0.267,0.115,0.363,0.115c0.103-0.011,0.217-0.104,0.312-0.152c0.071-0.042,0.133-0.042,0.149-0.073
		c0.035-0.076-0.07-0.14-0.07-0.317c-0.018-0.428-0.034-0.931-0.023-0.965c0.018-0.024,0.049-0.052,0.09-0.029
		c0.055,0.042,0.084,0.115,0.225,0.121c0.085,0.003,0.152-0.062,0.189-0.111c0.021-0.032,0.225-0.147,0.278-0.109
		c0.048,0.035,0,0.109-0.005,0.239c0,0.079,0.063,0.495,0.057,0.58c-0.035,0.585-0.306,1.188-0.705,1.807
		c-0.104,0.163-0.164,0.335-0.289,0.461c-0.166,0.158-0.676,0.431-1.729-0.403c-0.263-0.207-0.408-0.484-0.499-0.484
		c-0.066,0-0.092,0.188-0.092,0.322c0,0.172,0.195,0.443,0.455,0.678c0.162,0.149,0.504,0.35,0.668,0.409
		c0.281,0.092,0.633,0.195,0.906,0.307c0.642,0.237,1.699,0.69,2.193,1.174c0.555,0.552,1.032,1.505,1.398,2.743
		c0.199,0.678,0.605,2.479,1.039,4.139c0.399,1.552,0.828,2.986,0.826,2.975c-1.392,1.102-1.041,2.999-1.08,3.336
		c-0.105,0.009-1.203-7.064-2.004-10.479c-0.021-0.072-0.061-0.157-0.186-0.15c-0.133,0-0.143,0.118-0.148,0.174
		c0,0.066,1.032,10.342,1.127,11.87c-1.484-0.164-1.908,0.916-2.389,0.797c0,0-0.305,0.02-0.313-0.531
		c0-0.082-0.191-6.368-0.371-10.107c-0.071-1.523-0.086-3.158-0.155-4.688c-0.006-0.146-0.069-0.312-0.181-0.154
		c-0.318,0.663-1.045,0.773-1.703,0.64c-0.215-0.07-0.756-0.158-1.534-1.018c-0.131-0.114-0.285-0.025-0.25,0.104
		c0.244,0.886,1.067,1.41,1.634,1.655c0.449,0.178,0.684,0.2,1.038,0.215c0.052,0.733,0.077,1.428,0.077,2.335
		c-0.7-0.682-1.68-0.733-2.35-1.124c-0.64-0.378-1.09-1.013-1.586-1.855c0,0-0.119-0.211-0.257-0.135
		c-0.136,0.082-0.048,0.301-0.048,0.301c0.236,0.857,0.673,1.888,1.561,2.548c0.406,0.299,1.33,0.681,1.756,0.904
		c0.74,0.399,0.938,1.339,0.938,1.339c-0.52,1.164-1.462,2.144-2.443,3.225c-0.994,1.083-4.187,3.585-4.104,3.002
		c0.108-0.726,0.115-2.47,0.115-2.956c0-2.502-0.14-3.466-0.097-5.256c-0.486,0.871-1.188,1.018-1.402,1.166
		c0,0.043,0.061,7.771,0.061,7.99c-0.328-0.089-0.896-1.011-1.16-1.743c-0.041-0.048,0.021-10.951,0.094-10.978l0.896-0.458
		c0.034,0.667,0.02,1.717,0.025,2.102c0.943-1.164,1.549-2.016,2.611-2.57c0.781-0.406,2.209-0.654,2.791-0.949
		c0.405-0.349,0.9-2.14,0.987-2.704C199.447,27.771,199.469,27.527,199.357,27.534 M200.475,22.374
		c-0.148,0.141-0.514,0.444-0.959,0.613c-0.533,0.211-0.673,0.306-1.125,0.754c-0.053-0.244-0.063-1.205,0.367-1.916
		c0.125-0.215,0.315-0.392,0.523-0.517c-0.135-0.664,0.012-1.025,0.091-1.045c0.144-0.03,0.485,0.432,0.692,0.61
		c0.205,0.175,0.431-0.04,0.283-0.19c-0.047-0.046-0.132-0.152-0.203-0.239c0.041-0.153,0.051-0.296,0.129-0.264
		c0.063,0.036,0.406,0.344,0.512,0.829c0.061,0.034,0.324,0.063,0.617,0.303c0.882,0.748,1.521,2.231,1.879,4.354
		c-0.051-0.027-0.139-0.224-0.338-0.224c-0.15-0.006-0.414,0.122-0.482,0.141c-0.296,0.139-0.775,0.11-1.146-0.024
		c-0.107-0.046-0.578-0.178-0.893-0.141c-0.566,0.054-0.992,0.248-1.559,0.781c-0.396,0.377-0.916,0.556-0.916,0.556
		c-0.024-0.154-0.094-0.253-0.024-0.405c0.05-0.146,0.214-0.338,0.216-0.453c0.008-0.267-0.021-0.392,0.053-0.701
		c0.252-1.019,1.113-1.388,1.92-1.804c0.199-0.101,0.396-0.305,0.531-0.533C200.811,22.572,200.73,22.132,200.475,22.374
		 M209.594,27.165c0.084,0.214,0.371,0.53,0.557,0.729c0.109,0.101,0.056,0.147-0.104,0.127c-0.284-0.039-0.685-0.082-0.842-0.039
		c-0.165,0.047-0.468,0.339-0.667,0.546c-0.105,0.108-0.162,0.082-0.143-0.091c0.037-0.259,0.07-0.628,0.012-0.784
		c-0.053-0.169-0.359-0.507-0.555-0.715c-0.096-0.104-0.061-0.152,0.104-0.127c0.261,0.045,0.649,0.085,0.853,0.033
		c0.186-0.054,0.441-0.295,0.623-0.492c0.137-0.14,0.188-0.115,0.161,0.072C209.553,26.665,209.52,26.979,209.594,27.165
		 M215.484,27.165c0.086,0.214,0.377,0.53,0.56,0.729c0.106,0.101,0.056,0.147-0.104,0.127c-0.285-0.039-0.683-0.082-0.848-0.039
		c-0.166,0.047-0.466,0.339-0.66,0.546c-0.117,0.108-0.168,0.082-0.145-0.091c0.027-0.259,0.072-0.628,0.018-0.784
		c-0.063-0.169-0.363-0.507-0.563-0.715c-0.098-0.104-0.061-0.152,0.099-0.127c0.267,0.045,0.66,0.085,0.859,0.033
		c0.188-0.054,0.454-0.295,0.629-0.492c0.131-0.14,0.183-0.115,0.149,0.072C215.438,26.665,215.412,26.979,215.484,27.165
		 M213.919,38.465l0.333,0.22V37.67l0.25-0.782l0.245,0.782l0.006,2.054h0.463v-0.426c0-0.478,0.495-0.676,0.495-0.676
		s0.501,0.243,0.501,0.676v0.426h0.604v-0.34h0.486l0.002-0.43l0.629-0.307l0.631,0.303v0.801h1.063
		c0.066,0.279,0.131,0.559,0.175,0.828c-1.739,0.002-6.44,0.008-6.864,0.008c-0.461,0-0.35,0.525,0.104,0.525
		c2.179-0.008,4.981,0.192,6.864,0.582c0.064,1.62-0.301,3.126-0.688,4.364c-0.228,0.713-0.22,1.272,0.019,1.709
		c0.279,0.519,0.813,0.719,1.19,0.812c0.085,0.022,0.259,0.073,0.488,0.133c-0.313,0.272-0.354,0.694-0.36,0.847
		c-0.072,0.936,0.622,1.739,1.116,2.326c0.065,0.072,0.119,0.143,0.172,0.206c-0.183,0.093-0.532,0.337-0.592,0.57
		c-0.088,0.356,0.505,1.321,1.077,2.161c-0.113-0.098-0.239-0.184-0.367-0.227c-0.486-0.186-0.836-0.07-1.072,0.342
		c-0.287,0.522-0.34,1.224-0.373,1.773c-0.149-0.094-0.434-0.195-0.697-0.195c-0.026,0-0.061,0-0.094,0.004
		c-0.563,0.051-0.797,0.553-0.871,0.713c0,0-0.008,0.013-0.012,0.023c-0.115-0.082-0.279-0.164-0.521-0.211
		c-0.242-0.055-0.43-0.068-0.567-0.074c1.863-1.418,2.406-4.031,1.158-6.078c-1.244-2.061-3.837-2.81-5.976-1.822
		c-0.41,0.05-0.795-0.162-0.795-0.162s0.229-0.451,0.445-0.958c0.155-0.352,0.283-0.769,0.33-1.381
		c0.023-0.321-0.021-0.683-0.047-1.074c-0.055-0.533,0-1.496-0.301-2.187c-0.764-1.761-2.232-1.832-2.232-1.832
		s-0.168-1.298-0.275-1.726c0,0,0.461-0.004,1.17,0v-0.504h0.494V38.66l0.656,0.006v1.062h0.635l0.006-2.072l0.277-0.757
		l0.256,0.757l0.002,1.035L213.919,38.465z M221.756,47.87c-0.379-0.095-0.73-0.186-1.053-0.277
		c-0.405-0.11-0.518-0.233-0.557-0.314c-0.096-0.175-0.08-0.492,0.058-0.915c0.522-1.639,2.026-6.405-1.685-10.877
		c0.145-0.529,0.729-0.679,1.002-0.376c0.297,0.31,0.612,1.251,0.932,1.719c0.064,0.112,0.428,0.264,0.561,0.264
		c0.012,0,2.396-0.272,4.141-0.56c0.998,2.832,1.006,6.028,0.709,8.518c-0.037-0.068-0.078-0.125-0.123-0.183
		c-0.196-0.25-0.454-0.388-0.77-0.412l-0.025-0.007c-1-0.089-1.43,1.041-1.49,1.845c-0.027-0.013-0.068-0.034-0.104-0.046
		c-0.215-0.105-0.545-0.258-0.824-0.258c-0.521,0.003-0.809,0.233-0.879,0.701C221.586,47.07,221.656,47.488,221.756,47.87
		 M218.65,62.829c-0.041,0.03-0.073,0.062-0.107,0.095c-0.02-0.029-0.031-0.064-0.051-0.102c-0.098-0.223-0.242-0.549-0.453-0.729
		c-0.395-0.334-0.756-0.354-1.129-0.04c-0.454,0.387-0.744,1.039-0.953,1.541c-0.082-0.099-0.212-0.215-0.368-0.314
		c-0.537-0.592-0.446-1.361-0.433-1.639c0.011-0.291-0.23-0.283-0.455,0.133c-0.717,1.334-1.032,1.854-1.829,2.645
		c-0.565,0.563-1.924,1.268-2.203,1.156c-0.045-0.024,1.373-1.768,1.539-3.25c-0.024-0.336-0.256-0.305-0.453,0
		c-1.53,2.381-3.274,3.322-4.183,3.667c0.128-0.648,0.213-1.329,0.256-2.005c0.013,0.02-1.104-0.193-1.104-1.445
		c0-1.148,0.93-1.305,0.94-1.279c-0.46-3.429-2.004-6.299-4.071-7.852c0.061-0.957-0.064-2.438,1.215-3.866
		c0.317-0.343,1.438-1.022,2.037-1.251c0.188,0.416,0.451,0.719,0.688,1.098c0.188,0.377,0.081,0.859-0.134,1.529
		c-0.461,1.244-0.614,1.771-0.629,2.27c-0.002,0.271,0.201,0.733,0.4,0.631c0.508-1.7,1.182-3.766,1.082-4.459
		c-0.125-0.758-0.82-1.05-0.879-1.828c-0.027-0.149-0.034-0.311-0.012-0.472c0,0,0.003-0.016,0.003-0.028
		c0.058-0.555,0.512-1.176,0.608-1.3c0.448-0.213,1.092-0.593,1.441-0.904c0.346-0.302,0.829-0.713,0.98-0.968
		c0.004-0.014,0.014-0.026,0.021-0.038c0.024-0.037,0.039-0.083,0.06-0.122c0.11-0.361-0.269-0.864-0.23-0.903
		c0.041-0.038,0.467,0.162,0.57,0.663c0.041,0.223,0.031,0.325-0.021,0.415c0.229,0.125,0.622,0.25,1.089,0.678
		c0.198,0.186,0.286,0.545,0.256,0.793c-0.459-0.083-0.936,0.15-0.973,0.308c-0.063,0.329,0.063,0.723,0.07,1.026
		c0.009,0.09,0.031,0.255,0,0.294c-0.211,0.181-0.607-0.112-0.625,0.126c-0.006,0.075,0.162,0.045,0.234,0.083
		c0.098,0.056,0.178,0.168,0.295,0.167c0.084,0,0.133-0.092,0.26-0.195c0.07-0.06,0.115-0.05,0.173-0.1
		c0.038-0.037,0.005-0.168-0.003-0.261c-0.032-0.24-0.071-0.63-0.057-0.812c0.002-0.034,0.06-0.037,0.096-0.018
		c0.078,0.07,0.166,0.057,0.209,0.043c0.063-0.007,0.125-0.059,0.166-0.111c0.025-0.032,0.16-0.258,0.156-0.183
		c-0.002,0.12,0.012,0.2,0.022,0.28c0.021,0.104,0.085,0.358,0.063,0.56c-0.049,0.541-0.133,0.928-0.572,1.733
		c-0.096,0.161-0.172,0.469-0.436,0.531c-0.824,0.207-1.755-0.486-2.246-1.011c0,0-0.315-0.271-0.381-0.478
		c-0.041-0.108,0.149-0.575,0.217-0.756c0.065-0.151-0.117-0.162-0.27-0.037c-0.133,0.11-0.229,0.397-0.229,0.397
		c-0.142,0.345-0.106,0.565-0.053,0.728c0.311,0.722,1.057,1.312,0.846,2.192c-0.334,1.76-0.459,5.898-1.183,5.898
		c-0.838,0-2.241-3.02-2.496-3.412c-0.305-0.477-0.858-0.25-0.464,0.479c0.216,0.418,1.594,3.771,2.989,3.883
		c0.477,0.046,0.674-0.284,0.858-0.932c0.283-0.93,0.557-3.4,0.988-6.092c0.043-0.257-0.08-0.537-0.119-0.705
		c0.454,0.398,1.146,0.557,1.893,0.676c0.13,0.016,0.273,0.016,0.431,0c-1.519,1.187-2.127,3.17-1.588,4.969l-0.007-0.006
		c0,0,0.742,2.502,0.568,3.701c-0.145,0.733-0.565,0.813-0.654,0.881c-0.309,0.201-0.209,0.457-0.184,0.486
		c0.092,0.109,0.205,0.051,0.623-0.111c0.883-0.344,3.969-1.76,6.82-1.59c0.081,0.01,0.167,0.03,0.256,0.053
		c0.1,0.037,0.204,0.08,0.314,0.131c0.188,0.104,0.353,0.273,0.485,0.5c0.095,0.173,0.159,0.352,0.203,0.465
		c0.047,0.176,0.106,0.342,0.162,0.497c0.03,0.146,0.06,0.291,0.088,0.442c-0.198,0.029-0.558,0.119-0.692,0.318
		C218.188,60.697,218.4,61.833,218.65,62.829 M216.734,51.885c-0.074-0.107-0.104-0.175-0.18-0.287
		c-1.014-1.418-2.113-1.951-2.717-2.146c1.475-0.41,3.077,0.061,4.096,1.229c-0.108,0.797-0.549,2.094-2.482,3.262
		c-0.571,0.349-1.092,0.58-1.572,0.734c-0.082-0.113-0.165-0.229-0.238-0.346c-0.103-0.16-0.199-0.318-0.285-0.482
		c-0.039-0.078-0.072-0.143-0.104-0.203c0.479-0.127,1.021-0.347,1.641-0.711c0.16-0.098,0.16-0.1,0.315-0.188
		c0.272-0.162-0.171-0.893-0.46-0.739c-0.154,0.08-0.154,0.085-0.318,0.179c-0.546,0.319-1.041,0.528-1.484,0.653
		c-0.399-1.356-0.164-2.56-0.071-2.901c0.601,0.174,2.114,0.744,3.056,2.162c0.088,0.141,0.158,0.271,0.25,0.401
		C216.376,52.771,216.93,52.219,216.734,51.885 M217.844,55.29c0.678-0.7,0.957-1.417,1.069-1.944
		c-0.011,0.965-0.384,1.912-1.054,2.641C217.868,55.8,217.863,55.561,217.844,55.29 M217.725,54.445
		c-0.009-0.057-0.023-0.113-0.041-0.172c-0.02-0.11-0.02-0.063-0.037-0.178c-0.043-0.205-0.155-0.164-0.371,0.063
		c-0.129,0.133-0.246,0.323-0.224,0.456c0.027,0.117,0,0.023,0.027,0.128c0.026,0.088,0.042,0.168,0.065,0.25
		c-0.233,0.187-0.502,0.368-0.806,0.553c-0.413,0.252-0.803,0.44-1.164,0.574c-0.256-0.229-0.521-0.5-0.782-0.791
		c0.449-0.149,0.941-0.37,1.471-0.697c1.921-1.185,2.359-2.67,2.445-3.452c0.012,0.018,0.023,0.041,0.034,0.057
		c0.156,0.258,0.279,0.527,0.369,0.805C218.682,52.346,218.748,53.343,217.725,54.445 M217.398,56.413
		c-0.14,0.104-0.277,0.2-0.424,0.289c-0.222,0.131-0.445,0.233-0.676,0.321c-0.138-0.099-0.308-0.219-0.506-0.375
		c0.292-0.121,0.6-0.278,0.923-0.478c0.22-0.128,0.409-0.267,0.589-0.405C217.354,56.048,217.38,56.27,217.398,56.413
		 M215.122,56.885c0.179,0.123,0.351,0.223,0.495,0.309c-0.237,0.025-0.461,0.047-0.691,0.078c-0.518,0-1.035-0.1-1.513-0.283
		C213.868,57.063,214.441,57.066,215.122,56.885 M212.244,56.27c-0.296-0.258-0.557-0.574-0.773-0.93
		c-0.017-0.02-0.027-0.044-0.041-0.066c0.453,0.195,1.17,0.396,2.129,0.252c0.28,0.313,0.578,0.588,0.861,0.826
		C213.393,56.602,212.652,56.434,212.244,56.27 M212.754,54.439c0.09,0.142,0.188,0.287,0.287,0.433
		c-0.814,0.121-1.448,0.003-1.871-0.136c-0.162-0.42-0.254-0.856-0.275-1.284c0.219,0.104,0.733,0.345,1.528,0.312
		c0.054,0.131,0.121,0.266,0.188,0.396C212.652,54.259,212.706,54.341,212.754,54.439 M210.916,52.9
		c0.089-0.883,0.467-1.731,1.105-2.381c-0.099,0.381-0.234,1.267,0.121,2.479C211.628,53.047,211.215,52.984,210.916,52.9
		 M208.714,36.625c0.658,3.309,0.861,4.844,0.861,4.844s-0.415,0-0.722,0.06c-0.045,0.044-0.389-2.658-0.881-4.641
		c-1.043-4.151-1.687-5.022-2.695-5.188c-0.424-0.079-0.59,0.142-0.668,0.171c-0.063-0.072-0.215-0.153-0.266-0.207
		c0,0,0.193-1.447,1.18-1.423C206.717,30.27,207.939,32.782,208.714,36.625 M193.407,62.54c0.026,0.994-1.22,1.444-1.22,1.444
		c-0.029,0.67,0.039,1.375,0.179,2.086c-0.822-0.279-2.737-1.166-4.394-3.748c-0.199-0.305-0.433-0.334-0.449,0
		c0.156,1.482,1.584,3.227,1.523,3.25c-0.271,0.111-1.635-0.594-2.199-1.155c-0.791-0.79-1.109-1.31-1.826-2.644
		c-0.225-0.416-0.459-0.424-0.451-0.133c0.02,0.321,0.131,1.284-0.719,1.885c-0.209-0.489-0.488-1.103-0.92-1.473
		c-0.379-0.314-0.738-0.295-1.139,0.039c-0.204,0.182-0.359,0.508-0.454,0.73c-0.012,0.035-0.026,0.07-0.046,0.101
		c-0.034-0.032-0.068-0.063-0.105-0.095c0.246-0.996,0.459-2.133,0.239-2.441c-0.147-0.214-0.563-0.305-0.747-0.326
		c0.021-0.084,0.053-0.166,0.088-0.254c0.047-0.148,0.11-0.322,0.166-0.498c0.375-0.822,0.883-1.41,1.758-1.354
		c1.295,0.082,2.623,0.523,2.873,0.561c2.67,0.739,3.793,1.273,4.013,1.299c0.321,0.039,0.302-0.189,0.198-0.517
		c-0.125-0.431-0.287-0.854,0.074-1.774c0.145-0.385,0.43-0.971,0.664-1.455c0.563-0.976,1.161-2.25,1.521-2.928
		c0.279-0.565,0.324-0.947,0.064-1.063c-0.314-0.104-0.705,0.614-0.938,1.082c-0.445,0.78-1.006,2.071-1.78,2.924
		c-0.31,0.315-0.412,0.271-0.819,0.181c-1.64-0.453-5.137-2.299-5.684-2.263c-0.598,0.026-1.197-0.146-1.656-0.534
		c-0.074,0.153-0.31,0.178-0.351,0.076c0.041-0.128,0.041-0.327,0.146-0.396c0.131-0.156,0.469-0.319,0.776-0.42
		c0.657-0.045,0.989,0.291,1.767,0.696c0.84,0.114,3.133,0.509,4.719,0.987c0.447,0.091,0.539-0.225,0.188-0.436l-0.291-0.18
		c0.492-1.4,0.978-2.447,1.791-3.691c0.546-0.84,1.134-0.603,2.046-1.061c0.795-0.322,1.205-0.845,1.805-1.308
		c1.865,1.647,2.404,4.269,2.759,5.626c-2.384,1.699-4.245,4.875-4.287,7.828C192.29,61.232,193.37,61.375,193.407,62.54
		 M183.932,55.855c-0.519-0.219-0.959-0.418-1.479-0.625c-0.629-0.27-1.339-0.541-1.954-0.821c0.143-0.15,0.176-0.267,0.615-0.308
		c0.109,0.112,0.84,0.58,1.43,0.539c0.753-0.058,2.254,0.819,2.734,1.026c0.742,0.336,1.559,0.7,2.291,1.161
		c-0.432,0.389-0.725,1.088-0.725,1.088s-2.242-0.662-3.525-0.998c-1.09-0.277-1.984-0.521-2.869-0.708
		c-0.04-0.142-0.18-1.127-0.088-1.106c0.319,0.07,2.243,0.724,2.243,0.724s0.924,0.321,1.222,0.432
		C184.316,56.434,184.547,56.111,183.932,55.855 M184.236,52.913c0.25-0.267,0.541-0.438,0.805-0.552
		c0.309-0.105,0.49-0.157,0.814-0.205c0.686,0.25,1.158,0.414,1.84,0.677c-0.133,0.283-0.213,0.513-0.291,0.669
		C186.336,53.268,185.432,53.118,184.236,52.913 M190.1,46.196c-0.156,0.063-0.031,0.234-0.091,0.84
		c-0.065,0.64-0.241,1.14-0.665,1.282c-0.22,0.066-0.305-0.155-0.435-0.258c-0.065-0.043-0.142,0.015-0.2-0.003
		c-0.055-0.027-0.036-0.138-0.076-0.157c-0.055-0.03-0.173,0.026-0.193,0.016c-0.033-0.007-0.069-0.046-0.078-0.084
		c-0.016-0.073-0.059-0.208-0.1-0.198c-0.052,0.045-0.117,0.096-0.147,0.125c-0.083,0.063-0.12,0.085-0.193,0.082
		c-0.084-0.019-0.101-0.07-0.175-0.156c-0.116-0.135-0.271-0.362-0.365-0.498c-0.078-0.113-0.188-0.293-0.34-0.323
		c-0.253-0.046-0.756-0.39-0.889-1.052c-0.016-0.064-0.032-0.144-0.037-0.263c-0.055-0.504,0.053-0.987,0.246-0.929
		c0.019,0.006,0.023,0.02,0.029,0.031c0.008-0.007,0.008-0.007,0.008,0v0.006c0.018,0.04,0.015,0.102,0.002,0.19
		c0.007,0.249,0.016,0.41,0.098,0.497c0.102,0.113,0.305,0.113,0.402,0.1c0.412-0.064,0.854,0.01,1.317,0.064
		c0.281,0.054,0.476-0.039,0.595-0.223c0.105-0.194,0.306-0.382,0.529-0.428c0.667-0.043,1.111,0.477,1.604,0.85
		c0.658,0.496,2.111,1.599,2.111,1.599c-0.437,0.563-1.279,1.089-1.968,1.346c-0.286-0.568-0.493-0.708-0.636-0.821
		C190.492,47.522,190.574,46.184,190.1,46.196 M195.855,48.183c0,0,1.287-0.25,2.151-0.834c0.558-0.381,1.599-1.279,2.132-2.844
		c0.172-0.516-0.082-0.901-0.438-0.321c-0.876,1.441-2.646,3.221-4.387,3.089c-0.479-0.04-0.84-0.425-1.02-0.693
		c2.635-1.256,4.95-3.689,6.998-6.473l-0.18,6.245c-0.268,0.509-0.592,1.07-0.903,1.479c-0.948,1.235-2.244,2.108-3.172,1.444
		C196.434,48.848,195.855,48.183,195.855,48.183 M193.4,25.132c0.007,0.162-0.604,0.715-0.604,0.715s0.097,3.308,0.063,3.294
		c-0.194,0.045-0.563,0.159-0.728,0.268c0,0.013,0.085-3.544,0.085-3.544s-0.512-0.507-0.517-0.682
		c-0.003-0.175,0.694-2.748,0.85-2.748C192.711,22.435,193.398,24.959,193.4,25.132 M193.236,29.687
		c0.147-0.044,0.299,0.076,0.326,0.207c0,0.09-0.07,0.195-0.078,0.292c-0.01,0.096,0.051,0.183,0.037,0.287
		c-0.017,0.098-0.109,0.235-0.129,0.326c-0.056,0.224-0.056,0.373-0.156,0.45c-0.161,0.13-1.135,0.744-1.785,0.89
		c-0.116,0.026-0.241,1.25-0.245,1.374c-0.034,0.559-0.009,1.13-0.043,1.694c-0.058,0.734-0.022,1.559-0.156,2.278
		c-0.104,0.569-0.973,0.975-1.544,0.975c-0.339,0,0.236-2.84,0.281-3.056c0.277-1.327,0.538-2.624,1.138-3.857
		C191.346,30.62,192.212,29.933,193.236,29.687 M213.32,12.743c8.5,3.711,13.697,14.636,13.188,22.493
		c-0.21,0.054-0.446,0.091-0.694,0.139l-0.529,0.09l-0.516,0.087c-1.244,0.203-2.588,0.372-3.394,0.464
		c-0.021-0.793-0.104-1.581-0.229-2.378l-0.094-0.515l-0.086-0.52c-1.479-7.124-6.404-14.063-10.638-15.929
		c0.376-0.505,0.84-1.111,1.292-1.698C212.244,14.166,212.872,13.336,213.32,12.743 M199.66,10.714
		c5.242,0,9.035,1.713,11.419,3.274c-0.095,0.121-0.188,0.244-0.281,0.369c-0.627,0.818-1.271,1.662-1.709,2.252
		c-0.098,0.121-0.128,0.302-0.083,0.457c0.043,0.132,0.348,0.621,0.479,0.785c0.439,0.556,1.271,1.185,0.933,1.7
		c-0.086,0.14-0.222,0.211-0.362,0.229c-1.224-1.151-4.927-3.808-10.056-3.808c-4.55,0-7.888,2.095-9.465,3.322
		c-0.254,0.174-0.435,0.333-0.435,0.333c-0.07,0-0.338-0.205-0.301-0.475c0.03-0.258,0.279-0.424,0.443-0.604
		c0.132-0.143,0.267-0.282,0.376-0.423c0.329-0.418,0.426-1.123,0.125-1.518c-0.44-0.583-1.084-1.434-1.716-2.252
		c-0.141-0.191-0.289-0.381-0.428-0.567C190.902,12.295,194.555,10.714,199.66,10.714 M173.313,35.236
		c-0.504-7.857,4.689-18.782,13.197-22.493c0.443,0.593,1.08,1.423,1.7,2.233c0.444,0.587,0.909,1.193,1.29,1.698
		c-4.234,1.866-9.17,8.806-10.634,15.929l-0.186,1.037c-0.13,0.794-0.206,1.582-0.235,2.375c-0.807-0.092-2.162-0.264-3.412-0.465
		l-1.051-0.183C173.742,35.327,173.518,35.279,173.313,35.236 M172.964,49.827c0.076,0,0.155,0.004,0.224,0.011
		c0.188,0.018,0.338,0.018,0.42-0.029c0.388-0.218,0.096-0.799-0.197-1.374c-0.01-0.02-0.021-0.039-0.031-0.055
		c-0.206-0.405-0.443-0.854-0.328-1.01c0.053-0.063,0.119-0.093,0.214-0.093c0.121,0,0.271,0.05,0.415,0.102
		c0.159,0.056,0.324,0.112,0.488,0.112c0.105,0,0.196-0.026,0.268-0.095c0.203-0.151,0.182-0.618,0.142-1.08
		c-0.011-0.082-0.015-0.16-0.015-0.204c-0.002-0.197,0.032-0.643,0.345-0.723l0.122-0.007c0.218,0.021,0.363,0.23,0.455,0.65
		c0.012,0.036,0.019,0.104,0.029,0.177c0.077,0.469,0.17,0.939,0.4,1.063c0.059,0.028,0.125,0.04,0.193,0.04
		c0.176,0,0.354-0.104,0.519-0.206c0.224-0.138,0.424-0.246,0.574-0.113c0.142,0.131-0.01,0.619-0.138,1.055
		c-0.195,0.634-0.4,1.294,0.035,1.443c0.094,0.034,0.25,0,0.414-0.041c0.12-0.039,0.256-0.074,0.374-0.074
		c0.153,0,0.259,0.074,0.326,0.22c0.154,0.35-0.005,0.598-0.185,0.893c-0.086,0.143-0.236,0.314-0.396,0.496
		c-0.405,0.455-0.85,0.977-0.641,1.379c0.095,0.169,0.231,0.236,0.358,0.294c0.131,0.06,0.226,0.106,0.276,0.257
		c0.031,0.09-0.06,0.436-0.854,1.73c-0.211-0.281-0.465-0.512-0.752-0.644c-0.373-1.929-0.683-3.994-0.657-5.047
		c-0.028-0.39-0.289-0.336-0.329,0.104c-0.201,1.065-0.104,3.02,0.189,4.879c-0.056,0.023-0.113,0.035-0.17,0.067l-0.023,0.009
		c-0.192,0.092-0.348,0.231-0.445,0.405c-0.477-0.513-0.9-1.004-0.881-1.151c0.023-0.158,0.115-0.218,0.237-0.307
		c0.112-0.072,0.234-0.167,0.294-0.35c0.133-0.434-0.406-0.858-0.881-1.243c-0.189-0.146-0.373-0.289-0.479-0.418
		c-0.268-0.287-0.421-0.489-0.341-0.839C172.573,49.909,172.705,49.827,172.964,49.827 M190.012,84.286
		c0.312-0.312,0.705-1.065,1.086-1.884c0.365,0.102,0.734,0.184,1.107,0.257c-0.279,0.647-0.58,1.272-0.852,1.778
		C190.846,84.368,190.389,84.316,190.012,84.286 M193.346,84.775c-0.394-0.075-0.795-0.153-1.188-0.215
		c0.223-0.389,0.47-1.041,0.729-1.762c0.415,0.083,0.834,0.152,1.256,0.217C193.925,83.637,193.66,84.266,193.346,84.775
		 M195.355,85.268c-0.342-0.107-0.74-0.209-1.17-0.311c0.277-0.378,0.537-1.061,0.754-1.831c0.41,0.054,0.83,0.104,1.26,0.146
		C195.977,84.05,195.664,84.827,195.355,85.268 M204.648,85.268c-0.295-0.438-0.604-1.166-0.826-1.961
		c0.422-0.033,0.847-0.086,1.262-0.14c0.214,0.753,0.468,1.424,0.734,1.79C205.393,85.059,204.994,85.159,204.648,85.268
		 M206.66,84.775c-0.311-0.496-0.572-1.104-0.782-1.711c0.419-0.069,0.84-0.145,1.254-0.223c0.236,0.709,0.49,1.342,0.714,1.721
		C207.451,84.622,207.057,84.7,206.66,84.775 M209.993,84.286c-0.373,0.03-0.833,0.082-1.343,0.151
		c-0.268-0.494-0.563-1.105-0.834-1.733c0.373-0.08,0.74-0.161,1.104-0.263C209.285,83.254,209.693,83.977,209.993,84.286
		 M230.536,55.717c-0.875,4.229-2.784,10.391-6.896,15.776c-5.55,7.267-13.404,10.946-23.345,10.946h-0.019
		c-10.479-0.004-18.629-3.681-24.209-10.933c-4.038-5.251-5.823-11.235-6.606-15.337c-0.756-3.963-0.849-7.628-0.543-9.689
		c0.015-0.13,0.121-0.366,0.462-0.279c0.699,0.163,1.714,0.436,2.7,0.684c-0.036,0.105-0.066,0.228-0.063,0.369
		c0.027,0.594,0.354,1.221,0.613,1.703c-0.116,0-0.475,0.026-0.781,0.242c-0.455,0.331-0.394,0.887-0.373,1.067
		c0.099,0.928,0.923,1.596,1.526,2.088c0.073,0.058,0.133,0.115,0.198,0.168c-0.173,0.133-0.462,0.433-0.475,0.676
		c-0.014,0.296,0.518,0.919,1.141,1.527c-0.523,0.099-0.913,0.551-0.913,1.09c0,0.406,0.233,0.761,0.56,0.949
		c-0.231,0.241-0.275,0.524-0.139,0.863c0.229,0.546,0.764,1.021,1.175,1.383c-0.18,0.066-0.466,0.23-0.643,0.504
		c-0.313,0.473-0.063,0.967,0.03,1.127c0.418,0.825,1.425,1.166,2.17,1.416c0.083,0.025,0.164,0.055,0.24,0.082
		c-0.061,0.096-0.111,0.234-0.117,0.243c-0.063,0.156-0.133,0.384-0.077,0.552c0.073,0.278,0.747,0.649,1.498,0.986
		c-0.212,0.203-0.33,0.479-0.33,0.792c0,0.595,0.48,1.076,1.078,1.097c-0.044,0.232,0.034,0.451,0.23,0.67
		c0.401,0.437,1.065,0.699,1.58,0.896c-0.145,0.132-0.362,0.394-0.431,0.696c-0.125,0.548,0.286,0.925,0.415,1.044
		c0.581,0.53,1.405,0.598,2.073,0.598c0.164,0,0.314-0.005,0.465-0.006c0.086-0.006,0.176-0.006,0.256-0.011
		c0,0.025-0.012,0.046-0.012,0.066c-0.019,0.159-0.054,0.553,0.096,0.75c0.189,0.254,1.07,0.373,1.979,0.432
		c-0.1,0.173-0.156,0.365-0.156,0.58c0,0.608,0.502,1.103,1.114,1.103c0.077,0,0.152-0.005,0.22-0.021
		c-0.058,0.359,0.088,0.638,0.44,0.82c0.521,0.275,1.235,0.305,1.791,0.316c-0.106,0.182-0.211,0.5-0.171,0.803
		c0.059,0.559,0.568,0.771,0.738,0.85c0.236,0.105,0.51,0.156,0.802,0.156c0.624,0,1.269-0.242,1.774-0.439
		c0.094-0.035,0.174-0.066,0.248-0.094c0.006,0.012,0.006,0.028,0.006,0.051c0.039,0.162,0.131,0.555,0.354,0.695
		c0.08,0.053,0.205,0.073,0.395,0.073c0.815,0,2.532-0.489,3.347-0.746c0.131,0.911,0.491,1.734,1.141,2.136
		c0.384,0.242,5.39,0.227,5.767,0.026c0.19-0.104,0.354-0.262,0.506-0.453c0,0,0.009-0.003,0.014-0.006
		c0.311-0.409,0.53-0.978,0.646-1.603c0.85,0.263,2.494,0.731,3.272,0.731c0.181,0,0.317-0.026,0.399-0.083
		c0.203-0.135,0.303-0.525,0.33-0.678c0.007-0.025,0.015-0.051,0.018-0.063c0.077,0.026,0.165,0.062,0.241,0.092
		c0.513,0.195,1.157,0.436,1.788,0.436c0.291,0,0.555-0.048,0.802-0.156c0.169-0.07,0.681-0.287,0.737-0.848
		c0.035-0.307-0.063-0.62-0.176-0.803c0.555-0.006,1.269-0.043,1.799-0.313c0.387-0.21,0.521-0.512,0.414-0.932
		c0.106,0.03,0.211,0.052,0.334,0.052c0.607,0,1.11-0.494,1.11-1.105c0-0.217-0.065-0.414-0.17-0.588
		c0.856-0.061,1.66-0.179,1.835-0.424c0.15-0.195,0.115-0.593,0.088-0.757c0-0.022,0-0.043-0.009-0.06
		c0.087,0.005,0.175,0.005,0.267,0.011c0.148,0.001,0.305,0.006,0.463,0.006c0.662,0,1.494-0.067,2.065-0.599
		c0.14-0.118,0.545-0.495,0.417-1.043c-0.063-0.303-0.273-0.564-0.434-0.696c0.521-0.194,1.18-0.459,1.588-0.896
		c0.208-0.225,0.273-0.449,0.223-0.692c0.497-0.114,0.867-0.556,0.867-1.073c0-0.283-0.1-0.527-0.266-0.723
		c0.816-0.359,1.564-0.758,1.658-1.057c0.049-0.168-0.022-0.396-0.086-0.552c-0.008-0.009-0.066-0.147-0.123-0.243
		c0.084-0.027,0.164-0.057,0.254-0.082c0.731-0.25,1.738-0.591,2.17-1.416c0.08-0.16,0.334-0.654,0.023-1.127
		c-0.183-0.272-0.467-0.438-0.643-0.504c0.414-0.361,0.943-0.837,1.173-1.383c0.131-0.318,0.103-0.584-0.093-0.811
		c0.383-0.174,0.654-0.561,0.654-1.002c0-0.586-0.457-1.064-1.035-1.105c0.609-0.604,1.138-1.217,1.123-1.514
		c-0.021-0.242-0.295-0.543-0.474-0.674c0.06-0.055,0.129-0.111,0.199-0.168c0.604-0.492,1.43-1.162,1.528-2.088
		c0.021-0.183,0.08-0.738-0.381-1.068c-0.305-0.217-0.666-0.242-0.781-0.242c0.265-0.482,0.596-1.109,0.605-1.703
		c0.004-0.111-0.008-0.211-0.035-0.307c0.164-0.051,0.309-0.101,0.426-0.139c0.908-0.278,1.813-0.556,2.486-0.775
		c0.367-0.119,0.627,0.115,0.646,0.283C231.506,48.095,231.426,51.454,230.536,55.717"/>
	<path fill="#2B2523" d="M179.635,70.866c0.19-0.149,0.258-0.324,0.209-0.521c-0.042-0.189-0.165-0.408-0.375-0.67l-0.398-0.501
		l-1.68,1.335l0.361,0.453l0.693-0.557l0.036,0.056c0.178,0.22,0.358,0.377,0.539,0.483
		C179.221,71.053,179.429,71.034,179.635,70.866 M178.74,70.256l-0.045-0.044l0.483-0.381l0.036,0.049
		c0.104,0.136,0.16,0.242,0.172,0.32c0.012,0.075-0.028,0.146-0.116,0.212c-0.103,0.085-0.188,0.111-0.259,0.081
		C178.924,70.457,178.834,70.38,178.74,70.256"/>
	<path fill="#2B2523" d="M181.25,72.063c0.02-0.266-0.104-0.522-0.363-0.785c-0.26-0.254-0.527-0.383-0.791-0.368
		c-0.262,0.013-0.516,0.141-0.762,0.378c-0.232,0.238-0.364,0.494-0.383,0.758c-0.017,0.271,0.114,0.53,0.367,0.786
		c0.214,0.217,0.442,0.34,0.669,0.366c0.037,0,0.078,0.004,0.118,0c0.268-0.01,0.521-0.137,0.768-0.375
		C181.104,72.583,181.238,72.331,181.25,72.063 M180.783,71.887c-0.038,0.15-0.158,0.328-0.344,0.508
		c-0.179,0.188-0.35,0.295-0.511,0.344c-0.044,0.012-0.095,0.019-0.145,0.01c-0.091-0.004-0.176-0.055-0.252-0.127
		c-0.114-0.125-0.153-0.25-0.112-0.396c0.046-0.16,0.16-0.33,0.341-0.508c0.188-0.183,0.366-0.298,0.519-0.34
		c0.049-0.018,0.094-0.018,0.143-0.014c0.092,0.011,0.172,0.056,0.252,0.131C180.785,71.607,180.823,71.742,180.783,71.887"/>
	<path fill="#2B2523" d="M182.626,73.671c0.159-0.178,0.183-0.356,0.088-0.554c-0.094-0.184-0.267-0.389-0.509-0.6l-0.46-0.414
		l-1.438,1.584l0.427,0.391l0.604-0.667l0.065,0.063c0.119,0.109,0.182,0.2,0.182,0.279c0,0.08-0.048,0.214-0.145,0.383
		l-0.207,0.379l0.438,0.389l0.288-0.557c0.074-0.146,0.115-0.268,0.122-0.367c0.011-0.061-0.007-0.129-0.046-0.201
		c0.104,0.039,0.194,0.05,0.272,0.048C182.438,73.813,182.544,73.764,182.626,73.671 M182.171,73.309
		c-0.075,0.088-0.159,0.119-0.249,0.104c-0.098-0.023-0.211-0.096-0.342-0.211l-0.03-0.023l0.401-0.449l0.033,0.027
		c0.129,0.109,0.221,0.217,0.254,0.307C182.281,73.141,182.254,73.223,182.171,73.309"/>
	<polygon fill="#2B2523" points="183.137,75.598 184.219,74.173 183.76,73.825 182.458,75.527 183.66,76.434 183.882,76.148 	"/>
	<path fill="#2B2523" d="M183.749,76.48l0.455,0.276l0.495-0.377l0.648,0.394l-0.115,0.603l0.529,0.321l0.342-2.295l-0.478-0.285
		L183.749,76.48z M185.417,76.436l-0.458-0.271l0.594-0.443L185.417,76.436z"/>
	<polygon fill="#2B2523" points="188.854,76.835 188.146,78.854 188.698,79.041 189.402,77.027 	"/>
	<polygon fill="#2B2523" points="190.777,78.715 190.881,78.389 189.998,78.118 190.148,77.626 191.083,77.913 191.176,77.585 
		189.699,77.129 189.063,79.172 190.587,79.632 190.688,79.295 189.725,79.007 189.898,78.439 	"/>
	<polygon fill="#2B2523" points="192.457,79.322 191.951,77.779 191.361,77.634 190.848,79.712 191.333,79.829 191.684,78.428 
		192.227,80.048 192.762,80.176 193.275,78.107 192.796,77.988 	"/>
	<polygon fill="#2B2523" points="195.484,78.499 195.186,80.607 195.756,80.695 196.061,78.578 	"/>
	<path fill="#2B2523" d="M196.975,78.688l-1.11,2.037l0.534,0.055l0.283-0.555l0.756,0.08l0.16,0.594l0.623,0.057l-0.691-2.204
		L196.975,78.688z M196.837,79.92l0.333-0.652l0.186,0.705L196.837,79.92z"/>
	<polygon fill="#2B2523" points="200.318,79.585 199.824,78.883 199.146,78.883 199.971,80.027 199.971,81.018 200.553,81.018 
		200.553,80.036 201.422,78.883 200.829,78.883 	"/>
	<polygon fill="#2B2523" points="210.531,78.809 209.912,77.137 209.371,77.333 210.104,79.341 211.52,78.824 211.396,78.497 	"/>
	<path fill="#2B2523" d="M211.492,76.498l0.055,2.316l0.482-0.217l-0.021-0.613l0.692-0.307l0.431,0.436l0.564-0.25l-1.699-1.588
		L211.492,76.498z M211.986,77.635l-0.039-0.729l0.513,0.52L211.986,77.635z"/>
	<path fill="#2B2523" d="M214.646,74.857c-0.188,0.033-0.416,0.138-0.685,0.32l-0.538,0.35l1.186,1.781l0.48-0.317l-0.484-0.738
		l0.052-0.03c0.233-0.16,0.407-0.316,0.534-0.494c0.125-0.187,0.113-0.394-0.024-0.609
		C215.031,74.916,214.861,74.829,214.646,74.857 M214.734,75.704c-0.047,0.079-0.131,0.161-0.256,0.243l-0.058,0.037l-0.34-0.51
		l0.058-0.031c0.143-0.094,0.256-0.139,0.34-0.145c0.071,0,0.136,0.043,0.196,0.133C214.751,75.545,214.773,75.631,214.734,75.704"
		/>
	<path fill="#2B2523" d="M215.373,74.242l0.523,2.256l0.437-0.311l-0.162-0.599l0.625-0.448l0.515,0.346l0.5-0.352l-1.988-1.212
		L215.373,74.242z M216.508,74.953l-0.426,0.302l-0.18-0.705L216.508,74.953z"/>
	<polygon fill="#2B2523" points="217.887,72.756 217.672,72.491 216.313,73.615 216.537,73.882 216.994,73.501 218.148,74.881 
		218.591,74.512 217.436,73.132 	"/>
	<path fill="#2B2523" d="M219.627,72.215c-0.063-0.011-0.137,0-0.207,0.028c0.046-0.097,0.066-0.188,0.066-0.265
		c-0.004-0.129-0.041-0.235-0.131-0.324c-0.166-0.17-0.346-0.213-0.551-0.127c-0.188,0.072-0.406,0.23-0.646,0.461l-0.443,0.421
		l1.484,1.544l0.418-0.396l-0.614-0.642l0.064-0.065c0.111-0.106,0.207-0.164,0.287-0.16c0.088,0.011,0.213,0.067,0.373,0.168
		l0.364,0.236l0.425-0.4l-0.527-0.334C219.848,72.275,219.727,72.229,219.627,72.215 M219.041,72.329
		c-0.029,0.099-0.109,0.205-0.24,0.321l-0.023,0.023l-0.422-0.428l0.026-0.025c0.13-0.117,0.241-0.203,0.33-0.23
		c0.083-0.032,0.159-0.002,0.253,0.078C219.041,72.161,219.07,72.243,219.041,72.329"/>
	
		<rect x="219.017" y="71.292" transform="matrix(0.7341 0.679 -0.679 0.7341 107.1173 -130.4088)" fill="#2B2523" width="2.143" height="0.581"/>
	<path fill="#2B2523" d="M220.086,69.965l1.078,2.051l0.348-0.414l-0.303-0.531l0.488-0.586l0.576,0.201l0.401-0.474l-2.231-0.665
		L220.086,69.965z M221.363,70.368l-0.328,0.405l-0.361-0.649L221.363,70.368z"/>
	<path fill="#2B2523" d="M194.791,78.348c-0.079-0.021-0.176-0.049-0.271-0.068c-0.348-0.064-0.608-0.028-0.797,0.127
		c-0.188,0.146-0.314,0.386-0.382,0.724c-0.036,0.162-0.049,0.317-0.026,0.468c0.008,0.152,0.049,0.289,0.112,0.416
		c0.065,0.123,0.159,0.228,0.273,0.313c0.106,0.085,0.237,0.145,0.401,0.181c0.041,0.007,0.078,0.011,0.127,0.013l0.037,0.008
		c0.055,0,0.109,0.008,0.151,0.012c0.052,0.002,0.094,0.002,0.123,0.002c0.04,0,0.073,0,0.086-0.002l0.106-0.016l0.104-0.547
		l-0.225,0.062c-0.051,0.01-0.104,0.022-0.18,0.04c-0.052,0.006-0.115,0.006-0.188,0l-0.034-0.003
		c-0.069-0.017-0.132-0.046-0.171-0.091c-0.055-0.049-0.094-0.103-0.114-0.172c-0.021-0.07-0.034-0.166-0.04-0.262
		c0-0.104,0.014-0.215,0.038-0.33c0.021-0.104,0.048-0.203,0.076-0.295c0.021-0.074,0.051-0.133,0.086-0.173
		c0.022-0.034,0.056-0.053,0.095-0.065c0.055-0.02,0.123-0.015,0.195,0c0.053,0.014,0.093,0.021,0.133,0.031
		c0.04,0.021,0.082,0.034,0.117,0.047c0.034,0.021,0.064,0.033,0.1,0.055l0.028,0.021c0.019,0.005,0.034,0.017,0.052,0.027
		l0.189,0.116l0.086-0.524l-0.105-0.043C194.934,78.396,194.867,78.372,194.791,78.348"/>
	<path fill="#2B2523" d="M187.318,77.191c0.043-0.098,0.08-0.188,0.127-0.271c0.039-0.071,0.078-0.12,0.119-0.155
		c0.033-0.02,0.067-0.047,0.113-0.051c0.051,0,0.106,0.01,0.182,0.041c0.051,0.018,0.082,0.032,0.127,0.057
		c0.035,0.027,0.072,0.047,0.107,0.074c0.029,0.029,0.062,0.043,0.079,0.066c0.024,0.018,0.039,0.037,0.05,0.043l0.187,0.173
		l0.198-0.495l-0.096-0.072c-0.053-0.021-0.104-0.054-0.178-0.098c-0.079-0.041-0.161-0.084-0.25-0.12
		c-0.316-0.133-0.586-0.139-0.805-0.032c-0.221,0.111-0.391,0.322-0.524,0.64c-0.063,0.155-0.106,0.309-0.12,0.454
		c-0.013,0.152,0,0.293,0.038,0.434c0.041,0.133,0.11,0.254,0.209,0.354c0.084,0.108,0.209,0.19,0.353,0.25
		c0.059,0.023,0.106,0.043,0.16,0.061c0.054,0.012,0.11,0.029,0.153,0.038c0.033,0.007,0.062,0.011,0.091,0.022l0.064,0.012
		c0.023,0.002,0.036,0.002,0.036,0.002l0.116,0.013l0.203-0.515l-0.227,0.01c-0.051,0.002-0.105,0.002-0.186,0.008
		c-0.025-0.006-0.049-0.006-0.066-0.008c-0.053-0.01-0.1-0.025-0.145-0.04c-0.072-0.028-0.125-0.071-0.158-0.12
		c-0.039-0.052-0.063-0.121-0.07-0.191c-0.018-0.076-0.016-0.162,0.008-0.26C187.234,77.406,187.266,77.305,187.318,77.191"/>
	<path fill="#2B2523" d="M204.131,78.764c-0.183-0.057-0.436-0.07-0.768-0.029l-0.637,0.074l0.256,2.121l0.576-0.076l-0.104-0.865
		l0.063-0.014c0.27-0.029,0.508-0.101,0.697-0.199c0.196-0.112,0.279-0.297,0.251-0.555
		C204.441,78.979,204.318,78.829,204.131,78.764 M203.82,79.541c-0.078,0.063-0.192,0.098-0.346,0.111l-0.063,0.01l-0.073-0.604
		l0.064-0.006c0.171-0.021,0.293-0.015,0.365,0.018c0.067,0.037,0.109,0.101,0.123,0.216
		C203.911,79.41,203.883,79.498,203.82,79.541"/>
	<path fill="#2B2523" d="M206.309,78.449c-0.226-0.145-0.518-0.184-0.867-0.098c-0.36,0.08-0.61,0.238-0.735,0.465
		c-0.125,0.236-0.153,0.521-0.078,0.852c0.086,0.329,0.229,0.57,0.45,0.723c0.22,0.15,0.509,0.178,0.867,0.104
		c0.297-0.072,0.521-0.199,0.666-0.375c0.021-0.029,0.039-0.069,0.063-0.102c0.127-0.23,0.152-0.514,0.072-0.844
		C206.674,78.844,206.525,78.604,206.309,78.449 M206.186,79.925c-0.018,0.046-0.033,0.093-0.063,0.132
		c-0.058,0.068-0.14,0.112-0.248,0.139c-0.162,0.037-0.291,0-0.399-0.105c-0.105-0.125-0.197-0.309-0.254-0.559
		c-0.058-0.256-0.06-0.465-0.018-0.61c0.013-0.056,0.031-0.091,0.063-0.13c0.057-0.072,0.137-0.115,0.244-0.146
		c0.16-0.035,0.293-0.002,0.395,0.105c0.115,0.12,0.197,0.307,0.263,0.564C206.221,79.563,206.225,79.773,206.186,79.925"/>
	<path fill="#2B2523" d="M208.48,78.836c-0.047-0.039-0.112-0.061-0.203-0.068c0.098-0.062,0.156-0.135,0.19-0.203
		c0.06-0.117,0.064-0.229,0.027-0.351c-0.062-0.22-0.21-0.347-0.429-0.364c-0.205-0.018-0.467,0.027-0.784,0.116l-0.597,0.185
		l0.621,2.043l0.555-0.164l-0.256-0.854l0.092-0.024c0.146-0.041,0.259-0.043,0.322-0.008c0.066,0.043,0.164,0.146,0.256,0.316
		l0.22,0.377l0.556-0.162l-0.314-0.537C208.646,78.998,208.57,78.898,208.48,78.836 M207.907,78.675
		c-0.069,0.068-0.187,0.132-0.358,0.181l-0.041,0.006l-0.164-0.565l0.033-0.017c0.168-0.047,0.299-0.064,0.4-0.059
		c0.082,0.012,0.139,0.077,0.179,0.189C207.99,78.523,207.969,78.611,207.907,78.675"/>
	<rect x="151.92" y="11.517" fill="#2B2523" width="1.3" height="75.473"/>
	<g enable-background="new    ">
		<path fill="#2B2523" d="M33.158,42.235h-2.715V29.218h7.461v2.262h-4.746v3.356h4.416v2.252h-4.416V42.235z"/>
		<path fill="#2B2523" d="M46.558,42.235l-0.525-1.354h-0.071c-0.458,0.576-0.928,0.976-1.411,1.197
			c-0.484,0.223-1.115,0.334-1.892,0.334c-0.956,0-1.708-0.272-2.257-0.818c-0.549-0.547-0.824-1.324-0.824-2.333
			c0-1.057,0.37-1.836,1.108-2.337c0.739-0.502,1.854-0.779,3.343-0.833l1.727-0.053v-0.437c0-1.009-0.516-1.514-1.549-1.514
			c-0.795,0-1.73,0.24-2.805,0.722l-0.899-1.835c1.146-0.599,2.416-0.898,3.811-0.898c1.335,0,2.359,0.291,3.072,0.872
			c0.712,0.582,1.068,1.466,1.068,2.653v6.633H46.558z M45.756,37.623l-1.05,0.036c-0.79,0.023-1.377,0.166-1.763,0.428
			c-0.386,0.261-0.579,0.658-0.579,1.192c0,0.766,0.439,1.148,1.318,1.148c0.629,0,1.132-0.181,1.509-0.543s0.565-0.843,0.565-1.442
			V37.623z"/>
		<path fill="#2B2523" d="M55.292,42.413c-3.098,0-4.647-1.7-4.647-5.102c0-1.691,0.421-2.983,1.264-3.877
			c0.843-0.894,2.05-1.34,3.624-1.34c1.151,0,2.184,0.226,3.098,0.677l-0.801,2.101c-0.427-0.172-0.825-0.313-1.193-0.423
			c-0.368-0.109-0.736-0.164-1.104-0.164c-1.413,0-2.119,1.003-2.119,3.009c0,1.947,0.707,2.92,2.119,2.92
			c0.522,0,1.006-0.069,1.451-0.209s0.89-0.357,1.335-0.654v2.324c-0.439,0.278-0.883,0.472-1.331,0.578
			C56.54,42.36,55.974,42.413,55.292,42.413z"/>
		<path fill="#2B2523" d="M67.676,42.235l-0.365-1.273h-0.143c-0.291,0.463-0.703,0.821-1.237,1.073s-1.143,0.378-1.825,0.378
			c-1.169,0-2.051-0.313-2.645-0.938c-0.593-0.627-0.89-1.527-0.89-2.702v-6.491h2.715v5.814c0,0.718,0.128,1.257,0.383,1.615
			c0.255,0.359,0.662,0.539,1.22,0.539c0.76,0,1.309-0.254,1.647-0.762c0.338-0.507,0.507-1.349,0.507-2.523v-4.684h2.715v9.954
			H67.676z"/>
		<path fill="#2B2523" d="M75.324,42.235h-2.716V28.381h2.716V42.235z"/>
		<path fill="#2B2523" d="M82.366,40.25c0.475,0,1.045-0.104,1.709-0.312v2.021c-0.676,0.303-1.507,0.454-2.493,0.454
			c-1.086,0-1.877-0.274-2.373-0.823c-0.496-0.549-0.744-1.372-0.744-2.471V34.32h-1.3v-1.148l1.496-0.908l0.784-2.101h1.736v2.118
			h2.787v2.039h-2.787v4.799c0,0.386,0.108,0.671,0.325,0.854C81.724,40.158,82.01,40.25,82.366,40.25z"/>
		<path fill="#2B2523" d="M92.409,42.235l-0.525-1.354h-0.071c-0.458,0.576-0.928,0.976-1.411,1.197
			c-0.484,0.223-1.115,0.334-1.892,0.334c-0.956,0-1.708-0.272-2.257-0.818c-0.549-0.547-0.824-1.324-0.824-2.333
			c0-1.057,0.37-1.836,1.108-2.337c0.739-0.502,1.854-0.779,3.343-0.833l1.727-0.053v-0.437c0-1.009-0.516-1.514-1.549-1.514
			c-0.795,0-1.73,0.24-2.805,0.722l-0.899-1.835c1.146-0.599,2.416-0.898,3.811-0.898c1.335,0,2.359,0.291,3.072,0.872
			c0.712,0.582,1.068,1.466,1.068,2.653v6.633H92.409z M91.607,37.623l-1.05,0.036c-0.79,0.023-1.377,0.166-1.763,0.428
			c-0.386,0.261-0.579,0.658-0.579,1.192c0,0.766,0.439,1.148,1.318,1.148c0.629,0,1.132-0.181,1.509-0.543s0.565-0.843,0.565-1.442
			V37.623z"/>
		<path fill="#2B2523" d="M100.252,42.413c-1.169,0-2.088-0.454-2.755-1.362c-0.668-0.907-1.001-2.166-1.001-3.774
			c0-1.632,0.339-2.904,1.019-3.815s1.616-1.366,2.809-1.366c1.252,0,2.208,0.486,2.867,1.46h0.089
			c-0.137-0.742-0.205-1.403-0.205-1.985v-3.188h2.725v13.854h-2.083l-0.525-1.291h-0.116
			C102.458,41.923,101.517,42.413,100.252,42.413z M101.205,40.25c0.694,0,1.204-0.202,1.527-0.605
			c0.324-0.403,0.5-1.089,0.53-2.057v-0.294c0-1.068-0.165-1.834-0.494-2.297s-0.865-0.694-1.607-0.694
			c-0.605,0-1.076,0.257-1.411,0.77c-0.335,0.514-0.503,1.261-0.503,2.239c0,0.979,0.169,1.714,0.507,2.204
			C100.092,40.004,100.576,40.25,101.205,40.25z"/>
		<path fill="#2B2523" d="M116.527,42.413c-1.169,0-2.088-0.454-2.755-1.362c-0.668-0.907-1.001-2.166-1.001-3.774
			c0-1.632,0.339-2.904,1.019-3.815s1.616-1.366,2.809-1.366c1.252,0,2.208,0.486,2.867,1.46h0.089
			c-0.137-0.742-0.205-1.403-0.205-1.985v-3.188h2.725v13.854h-2.083l-0.525-1.291h-0.116
			C118.732,41.923,117.792,42.413,116.527,42.413z M117.48,40.25c0.694,0,1.204-0.202,1.527-0.605c0.324-0.403,0.5-1.089,0.53-2.057
			v-0.294c0-1.068-0.165-1.834-0.494-2.297s-0.865-0.694-1.607-0.694c-0.605,0-1.076,0.257-1.411,0.77
			c-0.335,0.514-0.503,1.261-0.503,2.239c0,0.979,0.169,1.714,0.507,2.204C116.367,40.004,116.851,40.25,117.48,40.25z"/>
		<path fill="#2B2523" d="M129.419,42.413c-1.603,0-2.855-0.441-3.757-1.326s-1.353-2.137-1.353-3.757
			c0-1.668,0.417-2.958,1.25-3.869s1.987-1.366,3.459-1.366c1.407,0,2.502,0.4,3.285,1.202c0.784,0.801,1.175,1.908,1.175,3.32
			v1.318h-6.419c0.029,0.771,0.258,1.374,0.686,1.807c0.427,0.434,1.027,0.65,1.798,0.65c0.6,0,1.167-0.063,1.701-0.188
			c0.534-0.124,1.092-0.323,1.673-0.596v2.101c-0.475,0.237-0.982,0.414-1.522,0.53C130.855,42.355,130.197,42.413,129.419,42.413z
			 M129.037,34.026c-0.576,0-1.027,0.183-1.354,0.548c-0.327,0.365-0.513,0.883-0.561,1.554h3.811
			c-0.012-0.671-0.187-1.188-0.525-1.554C130.069,34.208,129.612,34.026,129.037,34.026z"/>
	</g>
	<g enable-background="new    ">
		<path fill="#2B2523" d="M54.423,54.594c0,1.402-0.438,2.473-1.313,3.215c-0.876,0.742-2.121,1.113-3.735,1.113h-1.185v4.629h-2.76
			V50.535h4.158c1.579,0,2.779,0.34,3.602,1.02C54.012,52.234,54.423,53.248,54.423,54.594z M48.191,56.66h0.908
			c0.849,0,1.484-0.168,1.905-0.504c0.421-0.334,0.632-0.822,0.632-1.463c0-0.648-0.177-1.125-0.53-1.434s-0.907-0.463-1.661-0.463
			h-1.255V56.66z"/>
		<path fill="#2B2523" d="M63.612,60.596c0,1.021-0.355,1.799-1.064,2.332c-0.709,0.535-1.771,0.801-3.183,0.801
			c-0.724,0-1.341-0.049-1.852-0.146c-0.511-0.098-0.988-0.242-1.434-0.432v-2.244c0.504,0.238,1.073,0.438,1.705,0.598
			c0.632,0.16,1.188,0.24,1.669,0.24c0.985,0,1.478-0.285,1.478-0.855c0-0.213-0.065-0.387-0.196-0.52
			c-0.13-0.135-0.356-0.285-0.677-0.455c-0.32-0.168-0.748-0.365-1.282-0.592c-0.766-0.32-1.328-0.617-1.688-0.891
			c-0.359-0.273-0.62-0.586-0.783-0.939c-0.164-0.354-0.245-0.787-0.245-1.305c0-0.883,0.342-1.568,1.028-2.051
			c0.686-0.484,1.658-0.727,2.916-0.727c1.199,0,2.365,0.262,3.499,0.783l-0.819,1.959c-0.499-0.213-0.964-0.389-1.397-0.525
			c-0.434-0.137-0.875-0.205-1.327-0.205c-0.801,0-1.202,0.217-1.202,0.65c0,0.244,0.129,0.455,0.387,0.633
			c0.258,0.178,0.824,0.441,1.696,0.793c0.777,0.314,1.347,0.607,1.709,0.881c0.362,0.273,0.629,0.588,0.801,0.943
			C63.525,59.678,63.612,60.104,63.612,60.596z"/>
		<path fill="#2B2523" d="M65.614,51.025c0-0.885,0.493-1.328,1.478-1.328s1.478,0.443,1.478,1.328c0,0.42-0.123,0.748-0.37,0.982
			c-0.246,0.234-0.616,0.352-1.108,0.352C66.107,52.359,65.614,51.914,65.614,51.025z M68.446,63.551H65.73v-9.953h2.716V63.551z"/>
		<path fill="#2B2523" d="M75.336,63.729c-3.098,0-4.647-1.699-4.647-5.102c0-1.691,0.421-2.982,1.264-3.877
			c0.843-0.893,2.05-1.34,3.624-1.34c1.151,0,2.184,0.227,3.098,0.678l-0.801,2.1c-0.427-0.172-0.825-0.313-1.193-0.422
			c-0.368-0.109-0.736-0.164-1.104-0.164c-1.413,0-2.119,1.002-2.119,3.008c0,1.947,0.707,2.92,2.119,2.92
			c0.522,0,1.006-0.068,1.451-0.209c0.445-0.139,0.89-0.357,1.335-0.654v2.324c-0.439,0.279-0.883,0.473-1.331,0.578
			C76.584,63.676,76.019,63.729,75.336,63.729z"/>
		<path fill="#2B2523" d="M89.716,58.557c0,1.621-0.427,2.887-1.282,3.801c-0.854,0.914-2.045,1.371-3.57,1.371
			c-0.956,0-1.798-0.209-2.528-0.627s-1.291-1.02-1.683-1.803s-0.587-1.697-0.587-2.742c0-1.627,0.424-2.891,1.273-3.793
			c0.849-0.902,2.042-1.354,3.579-1.354c0.956,0,1.798,0.209,2.528,0.623c0.73,0.416,1.291,1.012,1.683,1.791
			C89.52,56.602,89.716,57.512,89.716,58.557z M82.833,58.557c0,0.984,0.162,1.73,0.485,2.234c0.323,0.504,0.85,0.758,1.58,0.758
			c0.724,0,1.245-0.252,1.563-0.754c0.318-0.5,0.477-1.246,0.477-2.238c0-0.984-0.16-1.725-0.481-2.217
			c-0.32-0.492-0.846-0.738-1.576-0.738c-0.724,0-1.247,0.244-1.567,0.734C82.994,56.824,82.833,57.564,82.833,58.557z"/>
		<path fill="#2B2523" d="M94.675,63.551h-2.716V49.697h2.716V63.551z"/>
		<path fill="#2B2523" d="M106.569,58.557c0,1.621-0.427,2.887-1.282,3.801c-0.854,0.914-2.045,1.371-3.57,1.371
			c-0.956,0-1.798-0.209-2.528-0.627s-1.291-1.02-1.683-1.803s-0.587-1.697-0.587-2.742c0-1.627,0.424-2.891,1.273-3.793
			c0.849-0.902,2.042-1.354,3.579-1.354c0.956,0,1.798,0.209,2.528,0.623c0.73,0.416,1.291,1.012,1.683,1.791
			C106.374,56.602,106.569,57.512,106.569,58.557z M99.687,58.557c0,0.984,0.162,1.73,0.485,2.234
			c0.323,0.504,0.85,0.758,1.58,0.758c0.724,0,1.245-0.252,1.563-0.754c0.318-0.5,0.477-1.246,0.477-2.238
			c0-0.984-0.16-1.725-0.481-2.217c-0.32-0.492-0.846-0.738-1.576-0.738c-0.724,0-1.247,0.244-1.567,0.734
			C99.847,56.824,99.687,57.564,99.687,58.557z"/>
		<path fill="#2B2523" d="M117.476,53.598v1.379l-1.558,0.402c0.285,0.445,0.427,0.943,0.427,1.494c0,1.068-0.373,1.902-1.117,2.498
			c-0.745,0.596-1.779,0.895-3.103,0.895l-0.49-0.025l-0.4-0.045c-0.279,0.213-0.418,0.451-0.418,0.711
			c0,0.393,0.499,0.588,1.496,0.588h1.692c1.092,0,1.924,0.234,2.497,0.703s0.859,1.158,0.859,2.066
			c0,1.164-0.485,2.064-1.456,2.707c-0.971,0.641-2.364,0.961-4.18,0.961c-1.389,0-2.45-0.242-3.183-0.727
			c-0.733-0.482-1.1-1.16-1.1-2.033c0-0.6,0.187-1.102,0.561-1.504c0.374-0.404,0.923-0.691,1.647-0.865
			c-0.279-0.117-0.522-0.313-0.73-0.582c-0.208-0.27-0.312-0.557-0.312-0.859c0-0.381,0.11-0.695,0.33-0.949
			c0.219-0.252,0.537-0.5,0.953-0.742c-0.522-0.227-0.937-0.588-1.242-1.086c-0.306-0.5-0.458-1.086-0.458-1.764
			c0-1.086,0.353-1.926,1.06-2.52c0.706-0.594,1.715-0.891,3.027-0.891c0.279,0,0.61,0.025,0.993,0.076s0.628,0.088,0.735,0.111
			H117.476z M109.792,64.957c0,0.375,0.18,0.668,0.539,0.883c0.359,0.213,0.862,0.32,1.509,0.32c0.973,0,1.736-0.135,2.288-0.4
			c0.552-0.268,0.828-0.633,0.828-1.096c0-0.373-0.164-0.633-0.49-0.775c-0.327-0.141-0.831-0.213-1.514-0.213h-1.407
			c-0.499,0-0.916,0.117-1.251,0.352S109.792,64.572,109.792,64.957z M110.78,56.855c0,0.541,0.123,0.969,0.37,1.283
			c0.246,0.314,0.622,0.471,1.126,0.471c0.511,0,0.884-0.156,1.122-0.471c0.237-0.314,0.356-0.742,0.356-1.283
			c0-1.199-0.493-1.797-1.478-1.797C111.279,55.059,110.78,55.656,110.78,56.855z"/>
		<path fill="#2B2523" d="M118.98,52.502v-0.24c1.021-1.188,1.718-2.08,2.092-2.68h3.045v0.188
			c-0.309,0.309-0.835,0.768-1.581,1.375c-0.745,0.609-1.328,1.061-1.75,1.357H118.98z M121.83,63.551h-2.716v-9.953h2.716V63.551z"
			/>
		<path fill="#2B2523" d="M131,63.551l-0.525-1.354h-0.071c-0.458,0.576-0.928,0.977-1.411,1.197
			c-0.484,0.223-1.115,0.334-1.892,0.334c-0.956,0-1.708-0.271-2.257-0.818c-0.549-0.547-0.824-1.324-0.824-2.332
			c0-1.057,0.37-1.836,1.108-2.338c0.739-0.502,1.854-0.779,3.343-0.832l1.727-0.053v-0.438c0-1.008-0.516-1.514-1.549-1.514
			c-0.795,0-1.73,0.24-2.805,0.723l-0.899-1.836c1.146-0.598,2.416-0.898,3.811-0.898c1.335,0,2.359,0.291,3.072,0.873
			s1.068,1.465,1.068,2.652v6.633H131z M130.198,58.939l-1.05,0.035c-0.79,0.023-1.377,0.166-1.763,0.428s-0.579,0.658-0.579,1.193
			c0,0.766,0.439,1.148,1.318,1.148c0.629,0,1.132-0.182,1.509-0.543c0.377-0.363,0.565-0.844,0.565-1.443V58.939z"/>
	</g>
</g>
</svg>
